<svg width="36" height="44" viewBox="0 0 36 44" fill="none" xmlns="http://www.w3.org/2000/svg">
<path d="M30.8 19.0665H27.8665V16.133H14.5922C14.2345 13.6492 12.1172 11.733 9.5335 11.733C6.69902 11.7335 4.40002 14.032 4.40002 16.8665C4.40002 19.701 6.69902 22 9.5335 22C9.78518 22 10.0259 21.96 10.2665 21.9256V30.8H17.4412L14.5077 39.6H17.6L20.5335 30.8V39.6H23.4665V30.8H27.8665V27.8665H30.8L39.6 33.7335V13.2L30.8 19.0665ZM9.5335 19.0665C8.31998 19.0665 7.3335 18.0796 7.3335 16.8665C7.3335 15.6534 8.31998 14.6665 9.5335 14.6665C10.7466 14.6665 11.7335 15.6534 11.7335 16.8665C11.7335 18.0796 10.7466 19.0665 9.5335 19.0665ZM24.9335 27.8665H13.2V19.0665H24.9335V27.8665ZM30.8 24.9335H27.8665V22H30.8V24.9335ZM36.6665 28.252L33.7335 26.297V20.6364L36.6665 18.6798V28.252Z" fill="#3F3F3F"/>
<path d="M19.8001 4.39998C16.9643 4.39998 14.6666 6.69898 14.6666 9.53346C14.6666 12.3679 16.9643 14.6669 19.8001 14.6669C22.6346 14.6669 24.9336 12.3679 24.9336 9.53346C24.9336 6.69898 22.6346 4.39998 19.8001 4.39998ZM19.8001 11.7335C18.5853 11.7335 17.6001 10.7465 17.6001 9.53346C17.6001 8.32038 18.5853 7.33346 19.8001 7.33346C21.0119 7.33346 22.0001 8.32038 22.0001 9.53346C22.0001 10.7465 21.0119 11.7335 19.8001 11.7335Z" fill="#3F3F3F"/>
</svg>
