<svg width="32" height="34" viewBox="0 0 32 34" fill="none" xmlns="http://www.w3.org/2000/svg">
<path d="M9 2.125H12V13.8125C12.0009 14.0038 12.0505 14.1914 12.1434 14.3553C12.2363 14.5192 12.3692 14.6534 12.5279 14.7437C12.6867 14.834 12.8654 14.8771 13.0453 14.8684C13.2252 14.8597 13.3996 14.7996 13.55 14.6944L16 12.9625L18.45 14.6944C18.6004 14.7996 18.7748 14.8597 18.9547 14.8684C19.1346 14.8771 19.3133 14.834 19.4721 14.7437C19.6308 14.6534 19.7637 14.5192 19.8566 14.3553C19.9495 14.1914 19.9991 14.0038 20 13.8125V2.125H27V0H7C5.93913 0 4.92172 0.447767 4.17157 1.2448C3.42143 2.04183 3 3.12283 3 4.25V5.3125H1C1 5.87609 1.21071 6.41659 1.58579 6.8151C1.96086 7.21362 2.46957 7.4375 3 7.4375V10.625H1C1 11.1886 1.21071 11.7291 1.58579 12.1276C1.96086 12.5261 2.46957 12.75 3 12.75V15.9375H1C1 16.5011 1.21071 17.0416 1.58579 17.4401C1.96086 17.8386 2.46957 18.0625 3 18.0625V21.25H1C1 21.8136 1.21071 22.3541 1.58579 22.7526C1.96086 23.1511 2.46957 23.375 3 23.375V26.5625H1C1 27.1261 1.21071 27.6666 1.58579 28.0651C1.96086 28.4636 2.46957 28.6875 3 28.6875V29.75C3 30.8772 3.42143 31.9582 4.17157 32.7552C4.92172 33.5522 5.93913 34 7 34H22V31.875H9V2.125ZM7 31.875C6.46957 31.875 5.96086 31.6511 5.58579 31.2526C5.21071 30.8541 5 30.3136 5 29.75V28.6875H7V31.875ZM7 26.5625H5V23.375H7V26.5625ZM7 21.25H5V18.0625H7V21.25ZM7 15.9375H5V12.75H7V15.9375ZM7 10.625H5V7.4375H7V10.625ZM7 5.3125H5V4.25C5 3.68641 5.21071 3.14591 5.58579 2.7474C5.96086 2.34888 6.46957 2.125 7 2.125V5.3125Z" fill="#3F3F3F"/>
<path d="M30.89 9.08437L28.89 4.83437C28.807 4.65757 28.6793 4.50883 28.5213 4.40486C28.3632 4.30089 28.1809 4.24582 27.995 4.24582C27.809 4.24582 27.6268 4.30089 27.4687 4.40486C27.3106 4.50883 27.1829 4.65757 27.1 4.83437L25.1 9.08437C25.0321 9.2333 24.9978 9.39702 25 9.5625V32.9375C25 33.2193 25.1053 33.4895 25.2929 33.6888C25.4804 33.8881 25.7348 34 26 34H30C30.2652 34 30.5195 33.8881 30.7071 33.6888C30.8946 33.4895 31 33.2193 31 32.9375V9.5625C30.999 9.39617 30.9614 9.2324 30.89 9.08437ZM29 31.875H27V28.6875H29V31.875ZM29 26.5625H27V10.625H29V26.5625Z" fill="#3F3F3F"/>
</svg>
