<svg width="32" height="34" viewBox="0 0 32 34" fill="none" xmlns="http://www.w3.org/2000/svg">
<path d="M32 27.8737C29.0523 31.0034 24.2779 31.0034 21.3333 27.8737C18.3856 31.0034 13.6112 31.0034 10.6667 27.8737C7.71893 31.0034 2.94453 31.0034 0 27.8737V32.5476C1.63355 33.5032 3.46856 34.0029 5.33333 34C7.2256 34 9.04853 33.4985 10.6667 32.5533C13.896 34.4425 18.1003 34.4425 21.3333 32.5533C22.9667 33.5071 24.8012 34.0049 26.6651 34C28.5611 34 30.3819 33.4928 32 32.5476V27.8737ZM24.8891 0C21.9445 0 19.5557 2.5381 19.5557 5.66666V9.44462H5.33333V5.66666C5.33333 5.16567 5.52064 4.6852 5.85406 4.33095C6.18747 3.9767 6.63968 3.77768 7.1112 3.77768C7.58272 3.77768 8.03493 3.9767 8.36834 4.33095C8.70176 4.6852 8.88907 5.16567 8.88907 5.66666H12.4443C12.4443 2.5381 10.0555 0 7.11093 0C4.1664 0 1.7776 2.5381 1.7776 5.66666V24.5559H5.33333V20.7774H19.5557V24.5559H23.1109V5.66666C23.1112 5.16574 23.2987 4.68543 23.6321 4.33128C23.9655 3.97713 24.4176 3.77811 24.8891 3.77796C25.3604 3.77826 25.8124 3.97735 26.1457 4.33148C26.479 4.68562 26.6664 5.16584 26.6667 5.66666H30.2224C30.2224 2.5381 27.8336 0 24.8891 0ZM19.5557 17H5.33333V13.222H19.5557V17Z" fill="#3F3F3F"/>
</svg>
