<svg width="42" height="42" viewBox="0 0 42 42" fill="none" xmlns="http://www.w3.org/2000/svg">
<rect width="41" height="41" transform="translate(0.5 0.5)" fill="white"/>
<path fill-rule="evenodd" clip-rule="evenodd" d="M4 8.78571C4 7.25125 4.53732 5.77963 5.49376 4.6946C6.45019 3.60956 7.7474 3 9.1 3H32.9C34.2526 3 35.5498 3.60956 36.5062 4.6946C37.4627 5.77963 38 7.25125 38 8.78571V24.2143C38 25.7488 37.4627 27.2204 36.5062 28.3054C35.5498 29.3904 34.2526 30 32.9 30H9.1C7.7474 30 6.45019 29.3904 5.49376 28.3054C4.53732 27.2204 4 25.7488 4 24.2143V8.78571ZM9.1 6.85714C8.64913 6.85714 8.21673 7.06033 7.89792 7.42201C7.57911 7.78369 7.4 8.27423 7.4 8.78571V24.2143C7.4 24.7258 7.57911 25.2163 7.89792 25.578C8.21673 25.9397 8.64913 26.1429 9.1 26.1429H32.9C33.3509 26.1429 33.7833 25.9397 34.1021 25.578C34.4209 25.2163 34.6 24.7258 34.6 24.2143V8.78571C34.6 8.27423 34.4209 7.78369 34.1021 7.42201C33.7833 7.06033 33.3509 6.85714 32.9 6.85714H9.1Z" fill="#3F3F3F"/>
<path fill-rule="evenodd" clip-rule="evenodd" d="M25.3798 12.7288C25.556 12.5464 25.7668 12.4009 25.9998 12.3008C26.2328 12.2007 26.4835 12.148 26.7371 12.1458C26.9907 12.1436 27.2422 12.1919 27.477 12.2879C27.7117 12.384 27.925 12.5258 28.1043 12.7051C28.2837 12.8845 28.4255 13.0977 28.5215 13.3325C28.6176 13.5672 28.6659 13.8187 28.6637 14.0724C28.6615 14.326 28.6088 14.5766 28.5087 14.8096C28.4086 15.0427 28.2631 15.2534 28.0806 15.4296L22.3504 21.1598C21.9923 21.5179 21.5065 21.7191 21 21.7191C20.4935 21.7191 20.0078 21.5179 19.6496 21.1598L15.8295 17.3397C15.4816 16.9795 15.289 16.497 15.2934 15.9962C15.2977 15.4954 15.4986 15.0163 15.8528 14.6621C16.2069 14.308 16.686 14.1071 17.1868 14.1028C17.6876 14.0984 18.1701 14.2909 18.5303 14.6389L21 17.1086L25.3798 12.7288ZM11.4497 35.0899C11.4497 34.5834 11.6509 34.0975 12.0092 33.7393C12.3674 33.3811 12.8532 33.1799 13.3598 33.1799H28.6403C29.1469 33.1799 29.6327 33.3811 29.9909 33.7393C30.3491 34.0975 30.5504 34.5834 30.5504 35.0899C30.5504 35.5965 30.3491 36.0823 29.9909 36.4406C29.6327 36.7988 29.1469 37 28.6403 37H13.3598C12.8532 37 12.3674 36.7988 12.0092 36.4406C11.6509 36.0823 11.4497 35.5965 11.4497 35.0899Z" fill="#3F3F3F"/>
<path fill-rule="evenodd" clip-rule="evenodd" d="M21 26.125C21.453 26.125 21.8876 26.305 22.2079 26.6254C22.5283 26.9457 22.7083 27.3803 22.7083 27.8333V34.6667C22.7083 35.1197 22.5283 35.5543 22.2079 35.8746C21.8876 36.195 21.453 36.375 21 36.375C20.5469 36.375 20.1124 36.195 19.792 35.8746C19.4716 35.5543 19.2916 35.1197 19.2916 34.6667V27.8333C19.2916 27.3803 19.4716 26.9457 19.792 26.6254C20.1124 26.305 20.5469 26.125 21 26.125Z" fill="#3F3F3F"/>
</svg>
