<svg width="193" height="36" viewBox="0 0 193 36" fill="none" xmlns="http://www.w3.org/2000/svg">
<g clip-path="url(#clip0_16_739)">
<path d="M16.8944 32.4355C25.7584 32.4355 32.9441 25.2498 32.9441 16.3858C32.9441 7.52184 25.7584 0.336151 16.8944 0.336151C8.03042 0.336151 0.844727 7.52184 0.844727 16.3858C0.844727 25.2498 8.03042 32.4355 16.8944 32.4355Z" fill="#F0C48A"/>
<path d="M8.54834 6.22897V2.77199C8.54834 1.46153 9.62054 0.38927 10.9311 0.38927H23.0359C24.3463 0.38927 25.4186 1.46146 25.4186 2.77199V31.2279C25.4186 32.5384 24.3464 33.6106 23.0359 33.6106H10.9311C9.6206 33.6106 8.54834 32.5385 8.54834 31.2279V6.22897Z" fill="#D3E6F8"/>
<path d="M23.7314 28.4199V33.5062C24.7053 33.2067 25.4185 32.2967 25.4185 31.228V28.4199H23.7314ZM23.7314 0.4938V5.06109H25.4185V2.77207C25.4185 1.70332 24.7054 0.793292 23.7314 0.4938Z" fill="#7BABF1"/>
<path d="M8.54834 5.06109H25.4835V28.4199H8.54834V5.06109Z" fill="white"/>
<path d="M23.7314 5.06109H25.4834V28.4199H23.7314V5.06109Z" fill="#D3E6F8"/>
<path d="M16.9834 32.5077C17.7897 32.5077 18.4433 31.854 18.4433 31.0477C18.4433 30.2414 17.7897 29.5878 16.9834 29.5878C16.1771 29.5878 15.5234 30.2414 15.5234 31.0477C15.5234 31.854 16.1771 32.5077 16.9834 32.5077Z" fill="#7BABF1"/>
<path d="M22.4987 17.7993V16.2007H21.0872C20.9808 15.6505 20.7643 15.1275 20.4507 14.6631L21.4485 13.6653L20.318 12.5349L19.3203 13.5327C18.8559 13.2191 18.3328 13.0026 17.7826 12.8963V11.4848H16.184V12.8963C15.6339 13.0026 15.1108 13.2191 14.6464 13.5327L13.6487 12.5349L12.5183 13.6653L13.516 14.6631C13.2025 15.1275 12.986 15.6505 12.8797 16.2007H11.4681V17.7993H12.8797C12.986 18.3495 13.2025 18.8725 13.516 19.337L12.5183 20.3347L13.6487 21.4652L14.6464 20.4673C15.1108 20.781 15.6338 20.9974 16.184 21.1038V22.5152H17.7826V21.1038C18.3328 20.9974 18.8559 20.7809 19.3203 20.4673L20.318 21.4652L21.4485 20.3347L20.4507 19.337C20.7643 18.8725 20.9808 18.3495 21.0872 17.7993H22.4987ZM16.9567 19.046C15.8267 19.046 14.9107 18.13 14.9107 17C14.9107 15.87 15.8267 14.954 16.9567 14.954C18.0867 14.954 19.0027 15.87 19.0027 17C19.0027 18.13 18.0867 19.046 16.9567 19.046Z" fill="#FD919E"/>
<path d="M16.9567 19.4353C15.6139 19.4353 14.5214 18.3428 14.5214 17C14.5214 15.6572 15.6138 14.5647 16.9567 14.5647C18.2995 14.5647 19.392 15.6571 19.392 17C19.392 18.3429 18.2995 19.4353 16.9567 19.4353ZM16.9567 15.3434C16.0432 15.3434 15.3 16.0865 15.3 17C15.3 17.9135 16.0432 18.6567 16.9567 18.6567C17.8702 18.6567 18.6134 17.9135 18.6134 17C18.6134 16.0865 17.8702 15.3434 16.9567 15.3434Z" fill="#4C4372"/>
<path d="M17.7827 22.9046H16.1841C16.0809 22.9046 15.9818 22.8636 15.9088 22.7905C15.8358 22.7175 15.7948 22.6185 15.7948 22.5152V21.4134C15.4126 21.3112 15.0455 21.1593 14.7029 20.9615L13.924 21.7404C13.851 21.8134 13.7519 21.8544 13.6487 21.8544C13.5455 21.8544 13.4464 21.8134 13.3734 21.7404L12.243 20.61C12.2069 20.5738 12.1782 20.5309 12.1586 20.4837C12.1391 20.4364 12.129 20.3858 12.129 20.3347C12.129 20.2836 12.1391 20.2329 12.1586 20.1857C12.1782 20.1385 12.2069 20.0956 12.243 20.0594L13.0219 19.2805C12.8241 18.938 12.6722 18.5709 12.57 18.1887H11.4681C11.3649 18.1887 11.2659 18.1477 11.1928 18.0746C11.1198 18.0016 11.0788 17.9026 11.0788 17.7993V16.2007C11.0788 16.0974 11.1198 15.9984 11.1928 15.9254C11.2659 15.8524 11.3649 15.8113 11.4681 15.8113H12.57C12.6721 15.4291 12.8241 15.062 13.0219 14.7194L12.243 13.9405C12.2069 13.9043 12.1782 13.8614 12.1586 13.8142C12.1391 13.7669 12.129 13.7163 12.129 13.6652C12.129 13.6141 12.1391 13.5634 12.1586 13.5162C12.1782 13.469 12.2069 13.426 12.243 13.3899L13.3734 12.2595C13.4096 12.2234 13.4525 12.1947 13.4997 12.1751C13.5469 12.1556 13.5976 12.1455 13.6487 12.1455C13.6998 12.1455 13.7505 12.1556 13.7977 12.1751C13.8449 12.1947 13.8878 12.2234 13.924 12.2595L14.7029 13.0384C15.0455 12.8406 15.4126 12.6886 15.7948 12.5865V11.4846C15.7948 11.3813 15.8358 11.2823 15.9088 11.2093C15.9818 11.1362 16.0809 11.0952 16.1841 11.0952H17.7827C17.886 11.0952 17.985 11.1362 18.058 11.2093C18.131 11.2823 18.1721 11.3813 18.1721 11.4846V12.5864C18.5543 12.6885 18.9214 12.8405 19.264 13.0383L20.0429 12.2595C20.1159 12.1865 20.2149 12.1455 20.3181 12.1455C20.4214 12.1455 20.5204 12.1865 20.5934 12.2595L21.7238 13.3898C21.76 13.426 21.7886 13.4689 21.8082 13.5161C21.8278 13.5634 21.8378 13.614 21.8378 13.6651C21.8378 13.7162 21.8278 13.7669 21.8082 13.8141C21.7886 13.8613 21.76 13.9043 21.7238 13.9404L20.9449 14.7193C21.1428 15.0619 21.2947 15.429 21.3968 15.8112H22.4987C22.6019 15.8112 22.701 15.8522 22.774 15.9252C22.847 15.9982 22.888 16.0973 22.888 16.2005V17.7992C22.888 17.9025 22.847 18.0015 22.774 18.0745C22.701 18.1475 22.6019 18.1885 22.4987 18.1885H21.3968C21.2947 18.5707 21.1427 18.9378 20.9449 19.2804L21.7238 20.0593C21.76 20.0954 21.7886 20.1383 21.8082 20.1856C21.8278 20.2328 21.8378 20.2834 21.8378 20.3346C21.8378 20.3857 21.8278 20.4363 21.8082 20.4835C21.7886 20.5308 21.76 20.5737 21.7238 20.6098L20.5934 21.7403C20.5573 21.7765 20.5144 21.8052 20.4671 21.8247C20.4199 21.8443 20.3692 21.8544 20.3181 21.8544C20.267 21.8544 20.2163 21.8443 20.1691 21.8247C20.1218 21.8052 20.0789 21.7765 20.0428 21.7403L19.2639 20.9613C18.9213 21.1592 18.5542 21.3111 18.172 21.4132V22.5151C18.172 22.5662 18.162 22.6169 18.1424 22.6641C18.1229 22.7114 18.0942 22.7543 18.058 22.7905C18.0219 22.8267 17.979 22.8554 17.9317 22.8749C17.8845 22.8945 17.8339 22.9046 17.7827 22.9046ZM16.5735 22.126H17.3934V21.1038C17.3934 21.0134 17.4249 20.9258 17.4824 20.856C17.54 20.7863 17.62 20.7388 17.7087 20.7216C18.2076 20.6257 18.6818 20.4294 19.1025 20.1447C19.1775 20.0941 19.2676 20.0712 19.3576 20.0798C19.4476 20.0885 19.5318 20.1282 19.5957 20.1921L20.3181 20.9146L20.8979 20.3347L20.1755 19.6123C20.1116 19.5484 20.0719 19.4642 20.0632 19.3742C20.0546 19.2843 20.0775 19.1941 20.1281 19.1192C20.4128 18.6984 20.609 18.2242 20.705 17.7254C20.7222 17.6366 20.7698 17.5566 20.8395 17.4991C20.9092 17.4416 20.9968 17.4101 21.0872 17.4101H22.1094V16.5901H21.0872C20.9968 16.5901 20.9092 16.5587 20.8395 16.5011C20.7697 16.4436 20.7222 16.3636 20.705 16.2748C20.6091 15.776 20.4128 15.3018 20.1281 14.881C20.0775 14.8061 20.0546 14.716 20.0632 14.626C20.0719 14.536 20.1115 14.4518 20.1755 14.3879L20.8979 13.6654L20.3181 13.0856L19.5957 13.8081C19.5318 13.872 19.4476 13.9117 19.3576 13.9203C19.2676 13.9289 19.1775 13.906 19.1025 13.8554C18.6818 13.5707 18.2076 13.3745 17.7087 13.2786C17.62 13.2614 17.54 13.2139 17.4824 13.1441C17.4249 13.0744 17.3934 12.9868 17.3934 12.8964V11.8741H16.5735V12.8964C16.5735 12.9868 16.542 13.0744 16.4845 13.1441C16.4269 13.2138 16.3469 13.2614 16.2582 13.2785C15.7593 13.3745 15.2851 13.5707 14.8644 13.8553C14.7894 13.9059 14.6993 13.9288 14.6093 13.9202C14.5193 13.9116 14.4352 13.8719 14.3712 13.808L13.6487 13.0856L13.0689 13.6653L13.7914 14.3878C13.8553 14.4518 13.895 14.5359 13.9036 14.6259C13.9122 14.7159 13.8893 14.8061 13.8387 14.881C13.554 15.3017 13.3578 15.7759 13.2618 16.2748C13.2447 16.3635 13.1971 16.4436 13.1274 16.5011C13.0576 16.5586 12.97 16.5901 12.8796 16.5901H11.8574V17.4101H12.8796C12.97 17.4101 13.0576 17.4415 13.1274 17.4991C13.1971 17.5566 13.2447 17.6366 13.2618 17.7254C13.3578 18.2242 13.5541 18.6984 13.8387 19.1192C13.8893 19.1941 13.9122 19.2843 13.9036 19.3742C13.895 19.4642 13.8553 19.5484 13.7914 19.6123L13.0689 20.3347L13.6487 20.9146L14.3712 20.1921C14.4351 20.1281 14.5193 20.0885 14.6093 20.0798C14.6993 20.0712 14.7895 20.0941 14.8644 20.1447C15.2851 20.4294 15.7593 20.6257 16.2582 20.7216C16.3469 20.7388 16.4269 20.7863 16.4845 20.8561C16.542 20.9258 16.5735 21.0134 16.5735 21.1038V22.126ZM25.451 5.45036H8.51586C8.3009 5.45036 8.2594 5.27605 8.2594 5.06102C8.2594 4.846 8.3009 4.67168 8.51586 4.67168H25.451C25.6659 4.67168 25.6328 4.83179 25.6328 5.04681C25.6328 5.26184 25.666 5.45036 25.451 5.45036ZM25.451 28.8092H8.51586C8.3009 28.8092 8.30084 28.7033 8.30084 28.4883C8.30084 28.2733 8.3009 28.0305 8.51586 28.0305H25.451C25.6659 28.0305 25.7074 28.2049 25.7074 28.4199C25.7075 28.6348 25.666 28.8092 25.451 28.8092Z" fill="#4C4372"/>
<path d="M16.9834 32.8969C15.9637 32.8969 15.1342 32.0674 15.1342 31.0477C15.1342 30.028 15.9637 29.1985 16.9834 29.1985C18.003 29.1985 18.8326 30.028 18.8326 31.0477C18.8326 32.0674 18.003 32.8969 16.9834 32.8969ZM16.9834 29.9771C16.393 29.9771 15.9128 30.4574 15.9128 31.0477C15.9128 31.6381 16.393 32.1183 16.9834 32.1183C17.5737 32.1183 18.054 31.6381 18.054 31.0477C18.054 30.4574 17.5737 29.9771 16.9834 29.9771Z" fill="#4C4372"/>
<path d="M23.0359 34H10.9311C9.40258 34 8.15906 32.7565 8.15906 31.228V2.772C8.15906 1.24352 9.40258 0 10.9311 0H23.0359C24.5643 0 25.8078 1.24352 25.8078 2.772V31.2279C25.8078 32.7565 24.5643 34 23.0359 34ZM10.9311 0.778613C9.8319 0.778613 8.93767 1.67284 8.93767 2.772V31.2279C8.93767 32.3271 9.8319 33.2213 10.9311 33.2213H23.0359C24.135 33.2213 25.0292 32.3271 25.0292 31.2279V2.772C25.0292 1.67284 24.135 0.778613 23.0359 0.778613H10.9311Z" fill="#4C4372"/>
</g>
<path d="M73.6102 17.0387C73.6316 8.32047 66.5814 1.23562 57.8632 1.21424C49.1449 1.19286 42.0601 8.24305 42.0387 16.9613C42.0173 25.6795 49.0675 32.7644 57.7858 32.7858C66.504 32.8071 73.5889 25.7569 73.6102 17.0387Z" fill="#FF4747"/>
<path d="M66.0654 15.0653L53.5909 8.82813C53.3706 8.71799 53.1259 8.66598 52.8798 8.67705C52.6338 8.68812 52.3947 8.76189 52.1852 8.89137C51.9757 9.02085 51.8028 9.20173 51.6829 9.41684C51.5629 9.63195 51.5 9.87414 51.5 10.1204V22.5947C51.5 22.841 51.5629 23.0832 51.6829 23.2983C51.8028 23.5134 51.9757 23.6943 52.1852 23.8238C52.3947 23.9533 52.6338 24.027 52.8798 24.0381C53.1259 24.0492 53.3706 23.9972 53.5909 23.887L66.0654 17.6499C67.1302 17.1175 67.1302 15.5977 66.0654 15.0653Z" fill="white"/>
<g clip-path="url(#clip1_16_739)">
<path d="M108.783 28.3513C114.94 22.194 114.94 12.211 108.783 6.05362C102.625 -0.103725 92.6421 -0.103726 86.4848 6.05362C80.3275 12.211 80.3275 22.194 86.4848 28.3513C92.6421 34.5087 102.625 34.5087 108.783 28.3513Z" fill="#66CACA"/>
<path d="M105.435 16.557L105.406 16.481L105.407 16.4805L104.429 13.3624V13.3626C103.485 10.5088 102.432 10.7277 102.432 10.7277L102.432 10.7282C102.114 10.6787 101.811 10.8003 101.665 10.8446H101.625C101.676 11.4353 101.422 12.0193 101.075 12.4217C99.0292 15.313 93.0974 16.4567 90.1883 13.6849C89.2308 15.2652 88.8048 16.557 88.8048 16.557C88.1186 18.4806 87.8046 20.8044 89.1576 22.597L89.1569 22.5984C90.1578 23.888 92.5301 25.3962 95.5447 25.8332L95.5439 25.8325C95.8446 25.8777 96.1555 25.911 96.4745 25.9312V25.9332C96.8646 25.9577 97.3544 25.959 97.7653 25.9332V25.9312C98.0768 25.9116 98.3872 25.8787 98.6959 25.8325L98.6952 25.8332C101.072 25.4887 103.786 24.2689 105.083 22.5984L105.082 22.597C106.435 20.8045 106.121 18.4806 105.435 16.557Z" fill="#4671C6"/>
<path d="M97.1201 26.1897C96.8933 26.1897 96.6665 26.1831 96.4593 26.1703C96.4486 26.1696 96.4379 26.1682 96.4274 26.1662C96.1262 26.1464 95.8259 26.1144 95.5272 26.0702C95.5215 26.0697 95.5158 26.0691 95.5101 26.0683C92.4266 25.6211 90.003 24.0764 88.9689 22.744C88.9629 22.7362 88.9573 22.728 88.9522 22.7195C87.8021 21.1781 87.6734 19.0203 88.5807 16.4772C88.5966 16.4288 89.0244 15.1468 89.9848 13.5617C90.0032 13.5313 90.0282 13.5054 90.0579 13.4859C90.0877 13.4665 90.1214 13.4539 90.1566 13.4492C90.1918 13.4445 90.2277 13.4478 90.2615 13.4588C90.2953 13.4698 90.3262 13.4882 90.3519 13.5128C91.5499 14.6543 93.4301 15.1934 95.5104 14.9911C97.7643 14.7721 99.8725 13.7097 100.881 12.2844C100.885 12.2783 100.89 12.2724 100.895 12.2667C101.244 11.8611 101.428 11.337 101.388 10.8646C101.385 10.8319 101.389 10.7989 101.4 10.7677C101.411 10.7366 101.428 10.708 101.45 10.6838C101.472 10.6596 101.499 10.6403 101.529 10.627C101.56 10.6138 101.592 10.607 101.625 10.607H101.628L101.656 10.5981C101.829 10.5417 102.113 10.4494 102.431 10.4881C102.689 10.4642 103.747 10.5474 104.655 13.2879L105.634 16.4099C105.635 16.4129 105.635 16.416 105.636 16.419L105.657 16.4729L105.658 16.4772C106.565 19.0201 106.437 21.1777 105.287 22.7191C105.282 22.7276 105.276 22.736 105.27 22.744C103.835 24.5933 100.951 25.7461 98.7287 26.0683C98.723 26.0691 98.7172 26.0697 98.7115 26.0702C98.4179 26.1138 98.1152 26.1461 97.8112 26.1662C97.8008 26.1683 97.7902 26.1697 97.7796 26.1703C97.56 26.1835 97.3401 26.19 97.1201 26.1897ZM96.5199 25.6981C96.8938 25.72 97.3473 25.7199 97.7196 25.6981C97.7296 25.6961 97.7397 25.6949 97.7501 25.6942C98.0547 25.675 98.3583 25.6428 98.6602 25.5976C98.6667 25.5965 98.673 25.5958 98.6794 25.5955C101.179 25.2285 103.721 23.9475 104.879 22.4725C104.883 22.4661 104.888 22.4598 104.892 22.4538C105.971 21.0251 106.078 19.0688 105.212 16.6387L105.18 16.5562C105.178 16.5477 105.175 16.5392 105.173 16.5305L104.203 13.4338C103.39 10.9782 102.542 10.961 102.475 10.9617C102.449 10.9667 102.422 10.9671 102.395 10.963C102.205 10.9334 102.013 10.9837 101.868 11.0289C101.859 11.5641 101.64 12.1256 101.262 12.5682C100.158 14.12 97.9734 15.2294 95.5561 15.4643C93.4605 15.6674 91.5442 15.1558 90.2443 14.055C89.4137 15.4812 89.0338 16.6197 89.0297 16.6317C88.1607 19.0679 88.2679 21.025 89.3466 22.454C89.351 22.4599 89.3552 22.466 89.359 22.4721C90.341 23.7221 92.631 25.1661 95.5593 25.5956C95.5657 25.5959 95.572 25.5966 95.5785 25.5977C95.8804 25.6428 96.1841 25.675 96.4887 25.6943C96.4996 25.6947 96.5099 25.6961 96.5199 25.6981Z" fill="#3762CC"/>
<path d="M100.919 24.8667C99.8913 24.8667 99.9257 24.8662 99.9257 24.8662L99.9253 24.8667H93.4336C91.7186 24.8667 90.3284 26.257 90.3284 27.9719V30.7912H104.024V27.9719C104.024 26.257 102.634 24.8667 100.919 24.8667Z" fill="#6BDDDD"/>
<path d="M104.024 31.0287H90.3284C90.2654 31.0287 90.2049 31.0037 90.1604 30.9592C90.1158 30.9146 90.0908 30.8542 90.0908 30.7912V27.9719C90.0908 26.1287 91.5904 24.6291 93.4336 24.6291H99.9159C99.9201 24.629 99.9241 24.6288 99.929 24.6289V24.6287C99.9386 24.6288 100.035 24.6291 100.919 24.6291C102.762 24.6291 104.262 26.1287 104.262 27.9719V30.7912C104.262 30.8224 104.256 30.8533 104.244 30.8821C104.232 30.911 104.214 30.9372 104.192 30.9592C104.17 30.9813 104.144 30.9988 104.115 31.0107C104.086 31.0226 104.055 31.0288 104.024 31.0287ZM90.5659 30.5537H103.787V27.9719C103.787 26.3907 102.5 25.1042 100.919 25.1042L100.061 25.104C100.029 25.104 99.9948 25.104 99.9595 25.1016C99.9481 25.1033 99.9367 25.1042 99.9252 25.1041H93.4335C91.8523 25.1041 90.5658 26.3905 90.5658 27.9718L90.5659 30.5537Z" fill="#3762CC"/>
<path d="M99.9444 24.8667H94.4115C94.4115 26.1152 94.8457 27.2407 95.6051 28.124C96.3064 28.9395 97.2979 28.8459 97.178 28.8459C98.9233 28.8459 99.9444 26.6202 99.9444 24.8667Z" fill="#E0EBFC"/>
<path d="M97.1758 25.9332L98.8432 27.975C99.0772 28.2615 99.5133 28.2665 99.7538 27.9856L102.288 25.1845C101.501 24.7974 100.868 24.8667 99.9377 24.8667L97.1758 25.9332ZM97.1732 25.9332L95.5058 27.975C95.2718 28.2615 94.8357 28.2665 94.5951 27.9856L92.0613 25.1845C92.8401 24.8013 93.4353 24.8667 94.4114 24.8667L97.1732 25.9332Z" fill="#4671C6"/>
<path d="M103.129 16.1072C102.059 15.337 100.951 14.7215 100.732 13.0395L100.689 12.8981C98.6312 15.1639 94.1018 16.0223 91.3219 14.5087C91.2114 15.1228 91.2275 15.4979 91.2275 16.1072C91.2149 16.107 91.2025 16.1053 91.1898 16.1053C90.1871 16.1053 89.3744 16.9108 89.3744 17.9043C89.3744 18.9667 90.3019 19.8072 91.3846 19.6927C91.9986 22.3015 94.3584 24.2454 97.1779 24.2454C99.9974 24.2454 102.357 22.3015 102.971 19.6927C104.053 19.807 104.981 18.9678 104.981 17.9043C104.981 16.881 104.125 16.0807 103.129 16.1072Z" fill="#F9CFCF"/>
<path d="M97.178 24.483C94.3545 24.483 91.9252 22.6252 91.2023 19.9405H91.1915C90.682 19.941 90.1902 19.7532 89.8109 19.4131C89.5992 19.2228 89.4299 18.9901 89.3138 18.7303C89.1977 18.4704 89.1375 18.1891 89.137 17.9044C89.137 16.8484 89.9511 15.9777 90.9896 15.8775C90.9879 15.384 90.9885 15.0208 91.0881 14.4667C91.0948 14.4297 91.1102 14.3948 91.133 14.3649C91.1557 14.335 91.1853 14.3109 91.2192 14.2947C91.2531 14.2784 91.2904 14.2705 91.328 14.2714C91.3656 14.2724 91.4024 14.2822 91.4354 14.3002C94.0698 15.7346 98.4816 14.9757 100.514 12.7386C100.542 12.7074 100.578 12.6843 100.618 12.6716C100.658 12.659 100.701 12.6573 100.742 12.6666C100.783 12.6759 100.821 12.6959 100.851 12.7246C100.882 12.7532 100.905 12.7895 100.917 12.8297L100.96 12.971C100.963 12.9834 100.966 12.9962 100.968 13.0091C101.152 14.4247 101.987 15.0122 102.954 15.6927C103.037 15.7511 103.121 15.8098 103.204 15.8694C103.723 15.8769 104.23 16.0868 104.605 16.452C105.001 16.8378 105.219 17.3537 105.219 17.9044C105.219 18.4777 104.974 19.0277 104.545 19.4129C104.166 19.7531 103.674 19.941 103.164 19.9405L103.154 19.9404C102.431 22.6253 100.002 24.483 97.178 24.483ZM91.3848 19.4552C91.4937 19.4552 91.5903 19.5302 91.6158 19.6384C92.2213 22.2111 94.5085 24.008 97.1779 24.008C99.8473 24.008 102.134 22.2111 102.74 19.6384C102.753 19.5821 102.787 19.5326 102.834 19.4992C102.881 19.4657 102.939 19.4505 102.996 19.4565C103.218 19.4804 103.442 19.4575 103.654 19.3891C103.866 19.3207 104.061 19.2085 104.227 19.0597C104.389 18.914 104.519 18.7359 104.608 18.5369C104.697 18.3378 104.743 18.1223 104.744 17.9043C104.744 17.4827 104.577 17.0878 104.273 16.7921C103.969 16.4966 103.556 16.3329 103.135 16.3445C103.083 16.3479 103.032 16.3302 102.989 16.2998C102.887 16.2258 102.784 16.1533 102.681 16.0809C101.774 15.4434 100.839 14.7858 100.548 13.3788C98.355 15.429 94.198 16.1218 91.5069 14.8679C91.4621 15.2286 91.4632 15.5239 91.4644 15.9014L91.4649 16.107C91.4649 16.1385 91.4586 16.1698 91.4464 16.1989C91.4341 16.228 91.4163 16.2543 91.3937 16.2764C91.3482 16.3212 91.2886 16.3427 91.2229 16.3445C91.2131 16.3442 91.2032 16.3437 91.1934 16.343H91.1927C90.3192 16.343 89.6118 17.0432 89.6118 17.9042C89.6118 18.3431 89.8001 18.7642 90.1285 19.0597C90.2944 19.2085 90.4897 19.3206 90.7018 19.389C90.9139 19.4573 91.138 19.4803 91.3595 19.4564C91.3679 19.4557 91.3764 19.4553 91.3848 19.4552Z" fill="#3762CC"/>
<path d="M97.1791 21.7271C96.769 21.7271 96.3871 21.5793 96.1314 21.3215C95.9368 21.1254 95.8297 20.8779 95.8297 20.6245C95.8297 20.5615 95.8547 20.5011 95.8993 20.4566C95.9438 20.412 96.0043 20.387 96.0673 20.387C96.1303 20.387 96.1907 20.412 96.2352 20.4566C96.2798 20.5011 96.3048 20.5615 96.3048 20.6245C96.3048 20.7535 96.3616 20.8789 96.4687 20.987C96.6334 21.1529 96.8989 21.252 97.1791 21.252C97.461 21.252 97.7186 21.1554 97.8858 20.9869C97.9929 20.8788 98.0497 20.7534 98.0497 20.6245C98.0497 20.5615 98.0747 20.5011 98.1192 20.4566C98.1638 20.412 98.2242 20.387 98.2872 20.387C98.3502 20.387 98.4106 20.412 98.4552 20.4566C98.4997 20.5011 98.5247 20.5615 98.5247 20.6245C98.5247 20.8776 98.4177 21.1251 98.2232 21.3214C97.9674 21.5793 97.5868 21.7271 97.1791 21.7271Z" fill="#3762CC"/>
<path d="M87.4849 22.8631L86.8008 22.9494L85.2498 10.6487C85.2441 10.6038 85.2473 10.5582 85.2593 10.5145C85.2713 10.4709 85.2917 10.43 85.3195 10.3942C85.3472 10.3584 85.3818 10.3285 85.4211 10.3061C85.4604 10.2836 85.5038 10.2692 85.5487 10.2635C85.5937 10.2579 85.6393 10.2611 85.6829 10.2731C85.7266 10.285 85.7675 10.3055 85.8033 10.3332C85.839 10.361 85.869 10.3955 85.8914 10.4349C85.9138 10.4742 85.9283 10.5176 85.9339 10.5625L87.4849 22.8631Z" fill="#E0EBFC"/>
<path d="M85.782 20.9166C85.5917 20.9414 85.4191 21.0408 85.3021 21.193C85.1851 21.3451 85.1334 21.5374 85.1582 21.7277L85.5905 25.0394C85.6028 25.1336 85.6335 25.2245 85.6809 25.3068C85.7284 25.3891 85.7915 25.4613 85.8668 25.5193C85.9422 25.5772 86.0282 25.6197 86.1199 25.6444C86.2117 25.6691 86.3074 25.6755 86.4016 25.6632L89.5505 25.2521C89.6447 25.2398 89.7356 25.2091 89.8179 25.1617C89.9002 25.1142 89.9724 25.0511 90.0304 24.9758C90.0883 24.9004 90.1308 24.8144 90.1555 24.7227C90.1802 24.6309 90.1866 24.5352 90.1742 24.441C89.7019 20.8229 89.765 20.957 89.5535 20.7304L89.574 20.7103L88.2346 19.3426C88.0694 19.174 87.797 19.1639 87.6261 19.3267C87.2421 19.6925 87.2256 20.2948 87.5795 20.682L85.782 20.9166Z" fill="#F9CFCF"/>
<path d="M86.3054 25.907C86.0942 25.9071 85.8889 25.8369 85.7219 25.7077C85.6216 25.631 85.5376 25.5353 85.4746 25.4259C85.4116 25.3165 85.3709 25.1958 85.355 25.0706L84.9225 21.758C84.9059 21.6329 84.9142 21.5057 84.947 21.3838C84.9798 21.262 85.0364 21.1478 85.1135 21.0479C85.1902 20.9477 85.2859 20.8636 85.3953 20.8007C85.5046 20.7377 85.6254 20.697 85.7506 20.6811L87.1492 20.4985C87.2743 20.4821 87.4014 20.4905 87.5233 20.5233C87.6451 20.5561 87.7593 20.6125 87.8593 20.6895C87.9595 20.7661 88.0436 20.8619 88.1066 20.9713C88.1696 21.0806 88.2103 21.2014 88.2263 21.3266L88.6587 24.6393C88.7271 25.1645 88.3556 25.6475 87.8304 25.7161L86.4317 25.8987C86.3896 25.9043 86.3473 25.907 86.3054 25.907ZM87.2748 20.9655C87.2534 20.9656 87.2321 20.9669 87.2109 20.9697L85.8121 21.1522C85.7488 21.1603 85.6878 21.1808 85.6325 21.2126C85.5773 21.2445 85.5288 21.2869 85.4901 21.3376C85.4511 21.3881 85.4225 21.4458 85.4059 21.5074C85.3893 21.5689 85.3851 21.6332 85.3936 21.6964L85.826 25.0092C85.8341 25.0725 85.8546 25.1335 85.8864 25.1888C85.9182 25.2441 85.9607 25.2925 86.0114 25.3312C86.0618 25.3703 86.1195 25.3989 86.1811 25.4155C86.2427 25.4321 86.307 25.4362 86.3702 25.4277L87.7689 25.2452C87.8964 25.2283 88.0121 25.1616 88.0906 25.0596C88.169 24.9576 88.2039 24.8286 88.1874 24.701L87.755 21.3882C87.7469 21.325 87.7263 21.2639 87.6944 21.2087C87.6626 21.1534 87.6201 21.105 87.5695 21.0662C87.4851 21.0009 87.3815 20.9655 87.2748 20.9655Z" fill="#3762CC"/>
<path d="M86.306 25.907C86.0946 25.9071 85.8891 25.8369 85.722 25.7075C85.6217 25.6308 85.5376 25.5349 85.4746 25.4255C85.4116 25.3161 85.3709 25.1953 85.3549 25.07L84.9225 21.7583C84.9059 21.6332 84.9142 21.506 84.947 21.3841C84.9798 21.2622 85.0364 21.148 85.1136 21.0481C85.1904 20.9478 85.2862 20.8637 85.3956 20.8007C85.505 20.7377 85.6258 20.697 85.7511 20.6809L87.1827 20.4941C86.9971 20.0455 87.0934 19.5059 87.4622 19.1546C87.7251 18.9046 88.1476 18.9144 88.4044 19.1765L89.7437 20.5441C89.7746 20.5756 89.7949 20.6135 89.8046 20.6533C89.9514 20.8287 89.9755 21.018 90.1833 22.6489C90.2415 23.1065 90.3147 23.6825 90.4099 24.4105C90.4265 24.5356 90.4182 24.6628 90.3854 24.7847C90.3526 24.9066 90.296 25.0208 90.2188 25.1207C90.142 25.221 90.0462 25.3051 89.9368 25.3681C89.8274 25.4311 89.7066 25.4718 89.5813 25.4878L86.4323 25.8989C86.3904 25.9042 86.3482 25.9069 86.306 25.907ZM85.8126 21.1521C85.6839 21.169 85.5694 21.2348 85.4903 21.3378C85.4112 21.4407 85.3768 21.5682 85.3937 21.6969L85.826 25.0086C85.8341 25.072 85.8547 25.1331 85.8866 25.1884C85.9184 25.2438 85.9609 25.2923 86.0117 25.3311C86.0622 25.3701 86.1199 25.3987 86.1816 25.4153C86.2432 25.4319 86.3075 25.4361 86.3708 25.4276L89.5198 25.0166C89.6485 24.9997 89.763 24.9339 89.8421 24.8309C89.9212 24.728 89.9556 24.6005 89.9387 24.4718C89.8621 23.8842 89.7865 23.2965 89.712 22.7087C89.4965 21.0165 89.4907 21.0102 89.3934 20.9066L89.3799 20.8922C89.3543 20.8648 89.3355 20.8317 89.3253 20.7956L88.0651 19.5088C87.989 19.4312 87.8654 19.4267 87.7901 19.4986C87.5043 19.7709 87.4885 20.2299 87.755 20.5217C87.7843 20.5538 87.8042 20.5933 87.8126 20.6359C87.821 20.6785 87.8176 20.7226 87.8027 20.7634C87.7878 20.8042 87.762 20.8402 87.728 20.8673C87.6941 20.8945 87.6534 20.9118 87.6103 20.9174L85.8126 21.1521ZM93.7728 20.4755C93.0675 20.4755 92.5672 20.3288 92.2566 20.0338C91.9635 19.7261 91.764 19.3413 91.6816 18.9244C91.6409 18.7178 91.6296 18.5064 91.6481 18.2966L91.7918 16.6541C91.7974 16.5873 91.8163 16.5223 91.8473 16.4628C91.8782 16.4034 91.9207 16.3506 91.9722 16.3077C92.0234 16.2644 92.0827 16.2317 92.1466 16.2116C92.2106 16.1914 92.2779 16.1842 92.3446 16.1903L96.396 16.5447C96.5825 16.5613 96.7549 16.6512 96.8752 16.7946C96.9956 16.938 97.0542 17.1233 97.0381 17.3099L96.9544 18.2674C96.8764 19.1603 96.2661 20.1505 95.0792 20.3503C94.584 20.4335 94.1491 20.4755 93.7728 20.4755ZM92.5887 19.6938C92.8361 19.9243 93.4558 20.1417 95.0004 19.8817C95.937 19.7242 96.419 18.9367 96.4812 18.2261L96.5649 17.2687C96.5702 17.2075 96.551 17.1468 96.5116 17.0999C96.4722 17.0529 96.4157 17.0235 96.3546 17.0181L92.3033 16.6636C92.294 16.663 92.2849 16.666 92.2778 16.672C92.2706 16.678 92.2661 16.6865 92.2651 16.6957L92.1214 18.3383C92.0998 18.5844 92.1302 18.8323 92.2107 19.0658C92.2913 19.2994 92.4201 19.5134 92.5887 19.6938ZM100.571 20.4874C100.098 20.4874 99.6318 20.409 99.2716 20.3484C98.244 20.1755 97.4903 19.3384 97.3965 18.2656L97.3127 17.308C97.2966 17.1214 97.3551 16.9361 97.4755 16.7927C97.5958 16.6492 97.7682 16.5594 97.9547 16.5428L102.006 16.1884C102.284 16.1618 102.535 16.3721 102.559 16.6524L102.703 18.2947C102.721 18.5047 102.71 18.7159 102.669 18.9225C102.419 20.1957 101.482 20.4874 100.571 20.4874ZM102.051 16.6615L102.048 16.6616L97.9962 17.016C97.9352 17.0215 97.8788 17.0509 97.8394 17.0978C97.8 17.1448 97.7808 17.2054 97.786 17.2665L97.8698 18.2242C97.9446 19.0779 98.5396 19.7434 99.3506 19.8797C100.973 20.1529 101.96 20.0686 102.203 18.8309C102.235 18.668 102.244 18.5016 102.23 18.3362L102.086 16.6937C102.085 16.6849 102.081 16.6768 102.075 16.6708C102.068 16.6649 102.06 16.6615 102.051 16.6615Z" fill="#3762CC"/>
<path d="M98.066 17.7271H96.2806C96.2176 17.7271 96.1572 17.7021 96.1127 17.6575C96.0681 17.613 96.0431 17.5526 96.0431 17.4896C96.0431 17.4266 96.0681 17.3661 96.1127 17.3216C96.1572 17.2771 96.2176 17.252 96.2806 17.252H98.066C98.129 17.252 98.1894 17.2771 98.234 17.3216C98.2785 17.3661 98.3035 17.4266 98.3035 17.4896C98.3035 17.5526 98.2785 17.613 98.234 17.6575C98.1894 17.7021 98.129 17.7271 98.066 17.7271Z" fill="#3762CC"/>
<path d="M100.961 9.5508C99.8679 8.60669 97.5518 7.19141 94.3286 8.33458C92.9313 8.90326 91.0138 10.2289 89.838 13.3179C92.6424 16.5594 98.9558 15.4163 101.075 12.4217C101.881 11.4862 101.782 10.26 100.961 9.5508ZM101.055 17.0371H100.147C99.9753 17.0372 99.8105 17.1056 99.689 17.2271C99.5674 17.3486 99.4991 17.5134 99.4988 17.6853V18.7658C99.499 18.9377 99.5674 19.1024 99.689 19.224C99.8105 19.3455 99.9753 19.4139 100.147 19.414C100.319 19.4138 100.484 19.3455 100.605 19.2239C100.727 19.1024 100.795 18.9376 100.795 18.7658V17.6853C100.795 17.6285 100.787 17.5738 100.774 17.5213H101.055C101.117 17.5189 101.177 17.4923 101.22 17.4472C101.264 17.402 101.288 17.3418 101.288 17.2792C101.288 17.2165 101.264 17.1563 101.22 17.1112C101.177 17.066 101.117 17.0395 101.055 17.0371ZM94.236 17.0385V17.0371H93.3283C93.2654 17.039 93.2057 17.0654 93.1619 17.1106C93.1181 17.1558 93.0936 17.2163 93.0936 17.2792C93.0936 17.3422 93.1181 17.4026 93.1619 17.4478C93.2057 17.493 93.2654 17.5194 93.3283 17.5214H93.5823C93.568 17.5749 93.5606 17.63 93.5604 17.6854V18.7659C93.5606 18.9378 93.629 19.1026 93.7505 19.2241C93.8721 19.3456 94.0369 19.414 94.2088 19.4141C94.3807 19.4139 94.5454 19.3456 94.667 19.2241C94.7885 19.1025 94.8568 18.9377 94.857 18.7659V17.6854C94.8568 17.5184 94.792 17.3578 94.6763 17.2373C94.5606 17.1168 94.4029 17.0456 94.236 17.0385Z" fill="#4671C6"/>
<path d="M90.7979 26.3045C90.7914 26.253 90.7749 26.2032 90.7491 26.158C90.7234 26.1129 90.689 26.0733 90.648 26.0414C90.6069 26.0096 90.56 25.9861 90.5099 25.9724C90.4597 25.9587 90.4074 25.955 90.3559 25.9615L86.6276 26.4316C86.5761 26.4381 86.5263 26.4547 86.4812 26.4804C86.436 26.5061 86.3964 26.5405 86.3645 26.5816C86.3327 26.6226 86.3092 26.6695 86.2955 26.7197C86.2818 26.7698 86.2781 26.8221 86.2846 26.8737L86.7786 30.7913H91.3637L90.7979 26.3045Z" fill="#6BDDDD"/>
<path d="M91.3637 31.0288H86.7785C86.7206 31.0287 86.6648 31.0076 86.6214 30.9694C86.578 30.9311 86.5501 30.8783 86.5429 30.8209L86.0489 26.9032C86.0277 26.7354 86.0732 26.5694 86.1769 26.4358C86.2806 26.3021 86.4303 26.2169 86.5981 26.1957L90.3263 25.7256C90.4088 25.715 90.4926 25.7209 90.5728 25.7428C90.653 25.7648 90.7281 25.8024 90.7937 25.8535C90.8595 25.9044 90.9146 25.9677 90.9558 26.04C90.997 26.1122 91.0235 26.1919 91.0337 26.2745V26.2746L91.5994 30.7614C91.6036 30.7948 91.6006 30.8288 91.5907 30.861C91.5808 30.8932 91.5641 30.923 91.5418 30.9482C91.5195 30.9735 91.4921 30.9938 91.4614 31.0077C91.4307 31.0215 91.3974 31.0287 91.3637 31.0288ZM86.988 30.5537H91.0943L90.5623 26.3341V26.3342C90.5566 26.2928 90.535 26.2553 90.502 26.2297C90.469 26.2041 90.4273 26.1924 90.3858 26.1971L86.6574 26.6672C86.6157 26.6725 86.5779 26.6941 86.5522 26.7272C86.5265 26.7604 86.515 26.8024 86.5203 26.844L86.988 30.5537ZM94.6521 15.5075C92.5616 15.5076 90.8008 14.7937 89.6583 13.4733C89.6303 13.4409 89.6115 13.4014 89.6041 13.3591C89.5967 13.3169 89.6008 13.2734 89.6161 13.2333C90.8212 10.0672 92.7954 8.70218 94.2392 8.11451C97.5852 6.92751 99.9836 8.39255 101.116 9.37098C102.061 10.1872 102.123 11.5599 101.262 12.5681C100.086 14.2224 97.673 15.3714 95.1118 15.4961C94.9587 15.5037 94.8054 15.5075 94.6521 15.5075ZM90.112 13.2682C91.2444 14.5014 93.0065 15.1241 95.0887 15.0217C97.477 14.9055 99.8049 13.8054 100.881 12.2846C100.886 12.2784 100.89 12.2725 100.895 12.2669C101.587 11.4628 101.549 10.3726 100.806 9.73062C99.7509 8.81953 97.5166 7.4558 94.4082 8.55847C93.0819 9.0984 91.2602 10.3575 90.112 13.2682Z" fill="#3762CC"/>
<path d="M89.9775 26.0091L89.8628 25.1301C89.7718 25.1922 89.6673 25.237 89.5505 25.2522L86.7206 25.6216L86.8231 26.4069L89.9775 26.0091Z" fill="#F9CFCF"/>
<path d="M86.8227 26.6443C86.7651 26.6442 86.7095 26.6232 86.6662 26.5852C86.623 26.5471 86.595 26.4947 86.5875 26.4375L86.485 25.6523C86.481 25.6214 86.4831 25.59 86.4912 25.5598C86.4993 25.5297 86.5132 25.5015 86.5322 25.4767C86.5513 25.452 86.575 25.4312 86.602 25.4157C86.629 25.4001 86.6589 25.39 86.6898 25.3859L89.5198 25.0166C89.595 25.006 89.6666 24.9777 89.7287 24.9339C89.7622 24.911 89.801 24.897 89.8415 24.8934C89.8819 24.8898 89.9226 24.8966 89.9597 24.9132C89.9968 24.9298 90.029 24.9556 90.0533 24.9881C90.0775 25.0207 90.093 25.059 90.0983 25.0992L90.2131 25.9783C90.2172 26.0093 90.215 26.0408 90.2068 26.0709C90.1987 26.1011 90.1846 26.1294 90.1655 26.1542C90.1464 26.1789 90.1226 26.1996 90.0954 26.2152C90.0683 26.2307 90.0383 26.2407 90.0073 26.2447L86.8528 26.6424C86.8428 26.6438 86.8328 26.6444 86.8227 26.6443ZM86.9869 25.8265L87.0281 26.1416L89.7112 25.8032L89.668 25.472C89.6395 25.4787 89.6106 25.4839 89.5814 25.4877L86.9869 25.8265Z" fill="#3762CC"/>
<path d="M94.4114 23.569V24.8667L97.1732 25.9332H97.1758L99.9376 24.8667H99.9443V23.569C98.2217 24.4681 96.1471 24.4748 94.4114 23.569Z" fill="#4671C6"/>
<path d="M94.4114 23.569V24.8667L97.1732 25.9332H97.1758L99.9376 24.8667H99.9443V23.569C98.2217 24.4681 96.1471 24.4748 94.4114 23.569Z" fill="#F9CFCF"/>
<path d="M97.1758 26.1708C97.1465 26.1708 97.115 26.1653 97.0876 26.1549L94.3257 25.0884C94.281 25.0711 94.2425 25.0407 94.2154 25.0012C94.1883 24.9616 94.1738 24.9148 94.1738 24.8668V23.5691C94.1738 23.5282 94.1843 23.4881 94.2043 23.4524C94.2244 23.4168 94.2533 23.387 94.2882 23.3658C94.3232 23.3446 94.363 23.3328 94.4038 23.3316C94.4447 23.3303 94.4851 23.3396 94.5214 23.3585C95.3415 23.7864 96.2529 24.0098 97.178 24.0098C98.103 24.0098 99.0144 23.7864 99.8346 23.3585C99.8708 23.3396 99.9112 23.3304 99.952 23.3317C99.9929 23.333 100.033 23.3448 100.068 23.366C100.102 23.3872 100.131 23.417 100.151 23.4526C100.171 23.4881 100.182 23.5283 100.182 23.5691V24.8668C100.182 24.9799 100.103 25.0746 99.9969 25.0985L97.2614 26.1549C97.2341 26.1653 97.205 26.1707 97.1758 26.1708ZM94.6489 24.7038L97.1746 25.6792L99.7069 24.7013V23.9475C98.9108 24.3017 98.0492 24.4848 97.1779 24.4848C96.3066 24.4848 95.445 24.3018 94.6489 23.9476V24.7038Z" fill="#3762CC"/>
<path d="M99.303 28.4306L99.2933 28.4305C99.1717 28.4293 99.0518 28.4013 98.9422 28.3485C98.8326 28.2957 98.736 28.2195 98.6592 28.1252L96.9919 26.0835C96.9682 26.0544 96.9516 26.0202 96.9437 25.9835C96.9358 25.9468 96.9367 25.9088 96.9463 25.8725C96.9558 25.8363 96.9739 25.8028 96.9989 25.7748C97.0239 25.7469 97.0552 25.7253 97.0902 25.7117L99.852 24.6453C99.8793 24.6347 99.9083 24.6293 99.9376 24.6293C100.064 24.6293 100.184 24.6279 100.301 24.6268C101.062 24.6193 101.663 24.6125 102.393 24.9714C102.426 24.9877 102.454 25.0114 102.477 25.0406C102.499 25.0698 102.514 25.1039 102.521 25.14C102.528 25.1761 102.526 25.2133 102.516 25.2487C102.507 25.2841 102.489 25.3167 102.464 25.344L99.93 28.1449C99.7759 28.3252 99.5463 28.4306 99.303 28.4306ZM97.5671 26.0368L99.0272 27.8248C99.0602 27.8652 99.1016 27.8978 99.1485 27.9204C99.1954 27.9431 99.2468 27.9551 99.2989 27.9557C99.4068 27.9586 99.5045 27.9115 99.5734 27.8312L101.888 25.2723C101.382 25.0903 100.914 25.0954 100.306 25.1017C100.202 25.1029 100.094 25.104 99.982 25.1042L97.5671 26.0368Z" fill="#3762CC"/>
<path d="M95.046 28.4306C94.8028 28.4306 94.5733 28.3249 94.4149 28.14L91.8853 25.3439C91.8607 25.3166 91.8427 25.284 91.8328 25.2486C91.8229 25.2132 91.8213 25.1759 91.8282 25.1398C91.8351 25.1037 91.8503 25.0697 91.8726 25.0405C91.8949 25.0112 91.9237 24.9875 91.9567 24.9713C92.6826 24.614 93.2539 24.6193 94.0436 24.627C94.1604 24.6281 94.2827 24.6293 94.4116 24.6293C94.4408 24.6293 94.4698 24.6347 94.4972 24.6452L97.2591 25.7116C97.2941 25.7252 97.3253 25.7468 97.3503 25.7748C97.3754 25.8027 97.3934 25.8362 97.403 25.8724C97.4126 25.9087 97.4134 25.9467 97.4055 25.9834C97.3976 26.02 97.3811 26.0543 97.3574 26.0834L95.69 28.125C95.6132 28.2194 95.5166 28.2956 95.407 28.3484C95.2974 28.4012 95.1775 28.4292 95.0559 28.4304C95.0525 28.4306 95.0493 28.4306 95.046 28.4306ZM92.4606 25.2718L94.7714 27.8262C94.8444 27.9115 94.9465 27.9575 95.0503 27.9557C95.1024 27.9551 95.1538 27.9431 95.2007 27.9205C95.2476 27.8978 95.289 27.8652 95.3219 27.8248L96.7821 26.0368L94.367 25.1042C94.2529 25.104 94.1439 25.1029 94.0391 25.1018C93.4085 25.0965 92.958 25.0917 92.4606 25.2718Z" fill="#3762CC"/>
<path d="M109.124 8.87226C109.52 8.44049 109.74 7.87556 109.739 7.28952C109.739 5.99456 108.689 4.94474 107.394 4.94474C106.099 4.94474 105.049 5.99456 105.049 7.28952C105.048 7.87556 105.268 8.44049 105.664 8.87226H105.658C106.087 9.37802 106.308 10.0273 106.277 10.6895H108.511C108.48 10.0273 108.701 9.37803 109.13 8.87226H109.124Z" fill="#FFEA94"/>
<path d="M108.097 8.46191C108.097 8.27533 108.023 8.0964 107.891 7.96447C107.759 7.83254 107.58 7.75843 107.394 7.75843C107.207 7.75843 107.028 7.83254 106.896 7.96447C106.764 8.0964 106.69 8.27533 106.69 8.46191C106.69 8.78924 106.915 9.06206 107.218 9.14045V10.85H107.57V9.14056C107.873 9.06206 108.097 8.78936 108.097 8.46191ZM107.394 8.87345C107.167 8.87345 106.982 8.68888 106.982 8.46203C106.982 8.23517 107.167 8.0506 107.394 8.0506C107.621 8.0506 107.805 8.23517 107.805 8.46203C107.805 8.68888 107.621 8.87345 107.394 8.87345Z" fill="#F9A7A7"/>
<path d="M109.159 5.16316L109.169 5.17278C109.201 5.20481 109.239 5.23022 109.28 5.24756C109.322 5.26489 109.367 5.27381 109.412 5.27381C109.458 5.27381 109.503 5.26489 109.544 5.24756C109.586 5.23022 109.624 5.20481 109.656 5.17278L110.412 4.41704C110.444 4.38501 110.47 4.34699 110.487 4.30514C110.504 4.2633 110.513 4.21844 110.513 4.17315C110.513 4.12785 110.504 4.083 110.487 4.04115C110.47 3.9993 110.444 3.96128 110.412 3.92925L110.402 3.91963C110.37 3.8876 110.332 3.86219 110.291 3.84486C110.249 3.82752 110.204 3.8186 110.159 3.8186C110.113 3.8186 110.068 3.82752 110.027 3.84486C109.985 3.86219 109.947 3.8876 109.915 3.91963L109.159 4.67537C109.127 4.7074 109.102 4.74542 109.084 4.78727C109.067 4.82912 109.058 4.87397 109.058 4.91927C109.058 4.96456 109.067 5.00941 109.084 5.05126C109.102 5.09311 109.127 5.13113 109.159 5.16316ZM107.43 4.47821H107.417C107.325 4.47821 107.237 4.44182 107.173 4.37705C107.108 4.31228 107.071 4.22443 107.071 4.13282V3.0602C107.071 2.9686 107.108 2.88075 107.173 2.81598C107.237 2.75121 107.325 2.71482 107.417 2.71482H107.43C107.521 2.71482 107.609 2.75121 107.674 2.81598C107.739 2.88075 107.775 2.9686 107.775 3.0602V4.13282C107.775 4.22443 107.739 4.31228 107.674 4.37705C107.609 4.44182 107.521 4.47821 107.43 4.47821ZM105.717 5.16316L105.707 5.17278C105.675 5.20481 105.637 5.23022 105.595 5.24756C105.553 5.26489 105.509 5.27381 105.463 5.27381C105.418 5.27381 105.373 5.26489 105.331 5.24756C105.289 5.23022 105.251 5.20481 105.219 5.17278L104.464 4.41704C104.432 4.38501 104.406 4.34699 104.389 4.30514C104.371 4.2633 104.363 4.21844 104.363 4.17315C104.363 4.12785 104.371 4.083 104.389 4.04115C104.406 3.9993 104.432 3.96128 104.464 3.92925L104.473 3.91963C104.505 3.8876 104.543 3.86219 104.585 3.84486C104.627 3.82752 104.672 3.8186 104.717 3.8186C104.762 3.8186 104.807 3.82752 104.849 3.84486C104.891 3.86219 104.929 3.8876 104.961 3.91963L105.717 4.67537C105.749 4.7074 105.774 4.74542 105.792 4.78727C105.809 4.82912 105.818 4.87397 105.818 4.91927C105.818 4.96456 105.809 5.00941 105.792 5.05126C105.774 5.09311 105.749 5.13113 105.717 5.16316Z" fill="#FFE164"/>
<path d="M109.944 6.18269V6.16903C109.944 5.97853 110.098 5.82412 110.289 5.82412H111.358C111.548 5.82412 111.702 5.97853 111.702 6.16903V6.18269C111.702 6.3732 111.548 6.5276 111.358 6.5276H110.289C110.197 6.52757 110.11 6.49122 110.045 6.42655C109.98 6.36187 109.944 6.27416 109.944 6.18269Z" fill="#FFDC85"/>
<path d="M103.144 6.18269V6.16903C103.144 5.97853 103.298 5.82412 103.489 5.82412H104.558C104.748 5.82412 104.903 5.97853 104.903 6.16903V6.18269C104.903 6.3732 104.748 6.5276 104.558 6.5276H103.489C103.397 6.52757 103.31 6.49122 103.245 6.42655C103.18 6.36187 103.144 6.27416 103.144 6.18269Z" fill="#FFE164"/>
<path d="M108.555 11.3929C106.1 11.3929 106.104 11.4415 106.104 11.2645C106.104 10.851 106.07 10.6896 106.233 10.6896C108.688 10.6896 108.684 10.6411 108.684 10.818V11.2645C108.684 11.3355 108.626 11.3929 108.555 11.3929Z" fill="#4671C6"/>
<path d="M108.363 12.0964H106.483C106.457 12.0964 106.43 12.0912 106.406 12.081C106.381 12.0707 106.358 12.0558 106.34 12.0369C106.321 12.0181 106.306 11.9957 106.296 11.971C106.285 11.9464 106.28 11.92 106.28 11.8933V11.3929H108.566V11.8933C108.566 11.92 108.561 11.9464 108.551 11.971C108.541 11.9957 108.526 12.0181 108.507 12.0369C108.488 12.0558 108.466 12.0707 108.441 12.081C108.416 12.0912 108.39 12.0964 108.363 12.0964Z" fill="#4671C6"/>
<path d="M107.628 13.0342H107.16C107.067 13.0342 106.976 13.016 106.89 12.9807C106.805 12.9453 106.727 12.8935 106.662 12.8282C106.597 12.7629 106.545 12.6853 106.51 12.6C106.474 12.5146 106.456 12.4231 106.456 12.3308V12.0963H108.332V12.3308C108.332 12.4231 108.314 12.5146 108.278 12.6C108.243 12.6853 108.191 12.7629 108.126 12.8282C108.061 12.8935 107.983 12.9453 107.898 12.9807C107.812 13.016 107.721 13.0342 107.628 13.0342Z" fill="#4671C6"/>
</g>
<g clip-path="url(#clip2_16_739)">
<path d="M137.149 32.5C145.709 32.5 152.649 25.5604 152.649 17C152.649 8.43959 145.709 1.5 137.149 1.5C128.589 1.5 121.649 8.43959 121.649 17C121.649 25.5604 128.589 32.5 137.149 32.5Z" fill="#00BBF0"/>
<path d="M151.338 24.281H151.667V24.2811H151.338L151.338 24.281Z" fill="#FCB5A9"/>
<path d="M144.613 11.9171H129.425C125.709 11.9171 122.697 14.9295 122.697 18.6456C122.697 22.3617 125.709 25.3741 129.425 25.3741C131.676 25.3741 133.669 24.2685 134.89 22.5709H139.147C140.369 24.2685 142.361 25.3741 144.613 25.3741C148.329 25.3741 151.341 22.3617 151.341 18.6456C151.341 14.9295 148.329 11.9171 144.613 11.9171Z" fill="white"/>
<path d="M151.341 18.7043C151.341 22.4203 148.329 25.4328 144.613 25.4328C142.361 25.4328 140.369 24.3268 139.148 22.6292H134.89C133.669 24.3267 131.676 25.4328 129.425 25.4328C125.709 25.4328 122.697 22.4203 122.697 18.7043C122.697 18.2923 122.734 17.8892 122.805 17.4976C123.374 20.6376 126.121 23.0188 129.425 23.0188C131.676 23.0188 133.669 21.9134 134.89 20.2159H139.148C140.369 21.9134 142.361 23.0188 144.613 23.0188C147.917 23.0188 150.664 20.6376 151.233 17.4976C151.305 17.8958 151.341 18.2996 151.341 18.7043Z" fill="#D3D3D3"/>
<path d="M145.125 21.9778C147.426 21.9778 149.29 20.113 149.29 17.8125C149.29 15.5121 147.426 13.6473 145.125 13.6473C142.825 13.6473 140.96 15.5121 140.96 17.8125C140.96 20.113 142.825 21.9778 145.125 21.9778Z" fill="#3E436D"/>
<path d="M129.105 21.9778C131.405 21.9778 133.27 20.113 133.27 17.8125C133.27 15.5121 131.405 13.6473 129.105 13.6473C126.804 13.6473 124.94 15.5121 124.94 17.8125C124.94 20.113 126.804 21.9778 129.105 21.9778Z" fill="#3E436D"/>
<path d="M131.841 16.4872H130.983C130.911 16.4872 130.839 16.4729 130.772 16.4451C130.705 16.4173 130.644 16.3766 130.592 16.3252C130.541 16.2738 130.5 16.2128 130.472 16.1457C130.444 16.0786 130.43 16.0066 130.43 15.934V15.0764C130.43 14.9296 130.372 14.7889 130.268 14.6851C130.164 14.5814 130.024 14.5231 129.877 14.5231H128.333C128.186 14.5231 128.045 14.5814 127.941 14.6851C127.838 14.7889 127.779 14.9296 127.779 15.0764V15.934C127.779 16.0066 127.765 16.0786 127.737 16.1457C127.71 16.2128 127.669 16.2738 127.617 16.3252C127.566 16.3766 127.505 16.4173 127.438 16.4451C127.371 16.4729 127.299 16.4872 127.226 16.4872H126.369C126.222 16.4872 126.081 16.5455 125.977 16.6493C125.874 16.753 125.815 16.8938 125.815 17.0405V18.5846C125.815 18.7314 125.874 18.8721 125.977 18.9759C126.081 19.0796 126.222 19.1379 126.369 19.1379H127.226C127.373 19.1379 127.514 19.1962 127.617 19.3C127.721 19.4037 127.779 19.5445 127.779 19.6912V20.5488C127.779 20.6955 127.838 20.8362 127.941 20.94C128.045 21.0438 128.186 21.1021 128.333 21.1021H129.877C130.024 21.1021 130.164 21.0438 130.268 20.94C130.372 20.8362 130.43 20.6955 130.43 20.5488V19.6912C130.43 19.5445 130.488 19.4037 130.592 19.3C130.696 19.1962 130.837 19.1379 130.983 19.1379H131.841C131.988 19.1379 132.128 19.0796 132.232 18.9759C132.336 18.8721 132.394 18.7314 132.394 18.5846V17.0405C132.394 16.7349 132.147 16.4872 131.841 16.4872Z" fill="#D3D3D3"/>
<path d="M145.044 16.6562C145.787 16.6562 146.389 16.054 146.389 15.3112C146.389 14.5683 145.787 13.9661 145.044 13.9661C144.302 13.9661 143.699 14.5683 143.699 15.3112C143.699 16.054 144.302 16.6562 145.044 16.6562Z" fill="#F8D572"/>
<path d="M145.044 16.4266C145.66 16.4266 146.16 15.9272 146.16 15.3112C146.16 14.6951 145.66 14.1958 145.044 14.1958C144.428 14.1958 143.929 14.6951 143.929 15.3112C143.929 15.9272 144.428 16.4266 145.044 16.4266Z" fill="#F9BD38"/>
<path d="M144.481 15.3112C144.481 15.7754 144.716 16.1846 145.074 16.4262C145.185 16.5015 145.307 16.5595 145.436 16.5983C145.309 16.6368 145.177 16.6563 145.045 16.6562C144.302 16.6562 143.699 16.054 143.699 15.3111C143.699 15.2995 143.7 15.288 143.7 15.2763C143.7 15.2688 143.7 15.2611 143.701 15.2535C143.701 15.2524 143.701 15.2512 143.701 15.2499C143.701 15.2448 143.701 15.2395 143.702 15.2344C143.741 14.5271 144.328 13.9661 145.045 13.9661C145.181 13.9661 145.312 13.9862 145.436 14.0239C145.307 14.0628 145.185 14.1208 145.074 14.196C144.716 14.4377 144.481 14.8469 144.481 15.3112Z" fill="#E2C06D"/>
<path d="M145.074 16.4262C145.064 16.4264 145.054 16.4265 145.044 16.4265C144.429 16.4265 143.929 15.9272 143.929 15.3111C143.929 14.6952 144.429 14.1957 145.044 14.1957C145.054 14.1957 145.064 14.1959 145.074 14.196C144.716 14.4376 144.481 14.8469 144.481 15.311C144.481 15.7752 144.716 16.1846 145.074 16.4262Z" fill="#DDA636"/>
<path d="M142.745 19.2861C143.488 19.2861 144.09 18.6839 144.09 17.9411C144.09 17.1982 143.488 16.596 142.745 16.596C142.003 16.596 141.4 17.1982 141.4 17.9411C141.4 18.6839 142.003 19.2861 142.745 19.2861Z" fill="#3588CD"/>
<path d="M142.182 17.941C142.182 18.4052 142.417 18.8145 142.775 19.0561C142.886 19.1313 143.008 19.1893 143.137 19.2281C143.01 19.2667 142.878 19.2862 142.746 19.286C142.003 19.286 141.401 18.6839 141.401 17.941C141.401 17.9293 141.401 17.9178 141.401 17.9062C141.401 17.8986 141.401 17.8909 141.402 17.8834C141.402 17.8822 141.402 17.8811 141.402 17.8797C141.402 17.8747 141.403 17.8694 141.403 17.8643C141.442 17.157 142.029 16.5959 142.746 16.5959C142.882 16.5959 143.013 16.6161 143.137 16.6538C143.008 16.6926 142.886 16.7506 142.775 16.8259C142.417 17.0676 142.182 17.4769 142.182 17.941Z" fill="#3385BC"/>
<path d="M142.745 19.0565C143.361 19.0565 143.861 18.5571 143.861 17.9411C143.861 17.3251 143.361 16.8257 142.745 16.8257C142.129 16.8257 141.63 17.3251 141.63 17.9411C141.63 18.5571 142.129 19.0565 142.745 19.0565Z" fill="#366FCC"/>
<path d="M143.174 18.9982C143.06 19.0369 142.94 19.0565 142.819 19.0563C142.203 19.0563 141.704 18.5572 141.704 17.9409C141.704 17.3251 142.203 16.8255 142.819 16.8255C142.943 16.8255 143.063 16.8458 143.174 16.8836C142.732 17.0315 142.414 17.4495 142.414 17.9409C142.414 18.4328 142.732 18.8503 143.174 18.9982Z" fill="#3268B7"/>
<path d="M147.505 19.2861C148.248 19.2861 148.85 18.6839 148.85 17.941C148.85 17.1982 148.248 16.596 147.505 16.596C146.762 16.596 146.16 17.1982 146.16 17.941C146.16 18.6839 146.762 19.2861 147.505 19.2861Z" fill="#ED4F4F"/>
<path d="M147.505 19.0564C148.121 19.0564 148.62 18.557 148.62 17.941C148.62 17.325 148.121 16.8256 147.505 16.8256C146.889 16.8256 146.389 17.325 146.389 17.941C146.389 18.557 146.889 19.0564 147.505 19.0564Z" fill="#DD1B1B"/>
<path d="M146.942 17.941C146.942 18.4052 147.177 18.8145 147.535 19.0561C147.646 19.1314 147.768 19.1894 147.896 19.2282C147.769 19.2667 147.637 19.2862 147.505 19.2861C146.762 19.2861 146.16 18.6839 146.16 17.941C146.16 17.9294 146.16 17.9179 146.16 17.9063C146.161 17.8987 146.161 17.891 146.161 17.8834C146.161 17.8823 146.161 17.8811 146.161 17.8798C146.162 17.8747 146.162 17.8695 146.162 17.8644C146.202 17.1571 146.788 16.596 147.505 16.596C147.641 16.596 147.772 16.6161 147.896 16.6539C147.768 16.6927 147.646 16.7507 147.535 16.8259C147.177 17.0676 146.942 17.4769 146.942 17.941Z" fill="#CC4A4A"/>
<path d="M147.534 19.0561C147.525 19.0563 147.515 19.0564 147.505 19.0564C146.889 19.0564 146.389 18.5571 146.389 17.941C146.389 17.3251 146.889 16.8256 147.505 16.8256C147.515 16.8256 147.525 16.8258 147.534 16.8259C147.177 17.0676 146.942 17.4768 146.942 17.941C146.942 18.4052 147.177 18.8145 147.534 19.0561Z" fill="#BC1B1B"/>
<path d="M145.044 21.659C145.787 21.659 146.389 21.0568 146.389 20.314C146.389 19.5711 145.787 18.9689 145.044 18.9689C144.302 18.9689 143.699 19.5711 143.699 20.314C143.699 21.0568 144.302 21.659 145.044 21.659Z" fill="#03E277"/>
<path d="M145.044 21.4294C145.66 21.4294 146.16 20.93 146.16 20.314C146.16 19.698 145.66 19.1986 145.044 19.1986C144.428 19.1986 143.929 19.698 143.929 20.314C143.929 20.93 144.428 21.4294 145.044 21.4294Z" fill="#00B764"/>
<path d="M144.481 20.314C144.481 20.7782 144.716 21.1874 145.074 21.429C145.185 21.5043 145.307 21.5623 145.436 21.6011C145.309 21.6396 145.177 21.6591 145.045 21.659C144.302 21.659 143.699 21.0568 143.699 20.3139C143.699 20.3023 143.7 20.2908 143.7 20.2792C143.7 20.2716 143.7 20.2639 143.701 20.2563C143.701 20.2552 143.701 20.254 143.701 20.2527C143.701 20.2476 143.701 20.2423 143.702 20.2373C143.741 19.53 144.328 18.9689 145.045 18.9689C145.181 18.9689 145.312 18.989 145.436 19.0267C145.307 19.0656 145.185 19.1236 145.074 19.1988C144.716 19.4405 144.481 19.8498 144.481 20.314Z" fill="#05CC68"/>
<path d="M145.074 21.429C145.064 21.4292 145.054 21.4293 145.044 21.4293C144.429 21.4293 143.929 20.93 143.929 20.3139C143.929 19.698 144.429 19.1985 145.044 19.1985C145.054 19.1985 145.064 19.1987 145.074 19.1988C144.716 19.4405 144.481 19.8497 144.481 20.3139C144.481 20.778 144.716 21.1874 145.074 21.429Z" fill="#049E54"/>
<path d="M135.891 18.9689H134.494C134.128 18.9689 133.831 18.6718 133.831 18.3053C133.831 17.9388 134.128 17.6416 134.494 17.6416H135.891C136.257 17.6416 136.554 17.9387 136.554 18.3053C136.554 18.6718 136.257 18.9689 135.891 18.9689ZM139.543 18.9689H138.147C137.781 18.9689 137.483 18.6718 137.483 18.3053C137.483 17.9388 137.781 17.6416 138.147 17.6416H139.543C139.91 17.6416 140.207 17.9387 140.207 18.3053C140.207 18.6718 139.91 18.9689 139.543 18.9689Z" fill="#27273D"/>
<path d="M140.047 14.3755H133.991C133.54 14.3755 133.174 14.0097 133.174 13.5585C133.174 13.1072 133.54 12.7414 133.991 12.7414H140.047C140.498 12.7414 140.864 13.1073 140.864 13.5585C140.864 14.0097 140.498 14.3755 140.047 14.3755Z" fill="#C1C1C1"/>
<path d="M139.754 13.9217H134.504C134.408 13.9217 134.317 13.8838 134.249 13.8163C134.182 13.7488 134.144 13.6573 134.144 13.5618V13.4647C134.144 13.3692 134.182 13.2776 134.249 13.2101C134.317 13.1426 134.408 13.1047 134.504 13.1047H139.754C139.849 13.1047 139.941 13.1426 140.008 13.2101C140.076 13.2776 140.114 13.3692 140.114 13.4647V13.5618C140.114 13.6573 140.076 13.7488 140.008 13.8163C139.941 13.8838 139.849 13.9217 139.754 13.9217Z" fill="#AFAFAF"/>
<path d="M137.189 13.663C140.111 13.663 142.48 11.2943 142.48 8.37225C142.48 5.45024 140.111 3.08148 137.189 3.08148C134.267 3.08148 131.899 5.45024 131.899 8.37225C131.899 11.2943 134.267 13.663 137.189 13.663Z" fill="#F8C952"/>
<path d="M136.86 12.272C137.411 12.7775 138.07 13.1681 138.798 13.4044C138.269 13.5764 137.716 13.6638 137.16 13.6634C134.238 13.6634 131.869 11.2939 131.869 8.37231C131.869 5.45068 134.238 3.08124 137.16 3.08124C137.716 3.08084 138.269 3.16826 138.798 3.34026C138.07 3.57646 137.411 3.96704 136.86 4.47267H136.859C135.806 5.44033 135.145 6.82964 135.145 8.37231C135.145 9.91499 135.806 11.3043 136.859 12.272H136.86Z" fill="#F9BD38"/>
<path d="M137.189 12.2833C139.349 12.2833 141.1 10.5322 141.1 8.37225C141.1 6.21225 139.349 4.46122 137.189 4.46122C135.029 4.46122 133.278 6.21225 133.278 8.37225C133.278 10.5322 135.029 12.2833 137.189 12.2833Z" fill="#EA8032"/>
<path d="M137.189 11.7067C139.031 11.7067 140.524 10.2138 140.524 8.37225C140.524 6.53066 139.031 5.03775 137.189 5.03775C135.348 5.03775 133.855 6.53066 133.855 8.37225C133.855 10.2138 135.348 11.7067 137.189 11.7067Z" fill="#F9DC93"/>
<path d="M138.155 11.5649C137.842 11.6592 137.517 11.7071 137.19 11.7068C135.348 11.7068 133.855 10.2139 133.855 8.37182C133.855 6.53077 135.348 5.03787 137.19 5.03787C137.525 5.03787 137.85 5.08758 138.155 5.17979C136.784 5.59423 135.786 6.86644 135.786 8.37182C135.786 9.87817 136.784 11.1504 138.155 11.5649Z" fill="#F8D572"/>
<path d="M136.158 8.26866C136.158 8.46053 134.73 8.87606 134.787 9.04923C134.845 9.22869 136.245 8.72524 136.354 8.87461C136.464 9.02543 135.553 10.202 135.704 10.3118C135.854 10.4205 136.691 9.19193 136.87 9.25024C137.043 9.30649 136.997 10.7944 137.189 10.7944C137.381 10.7944 137.335 9.30643 137.508 9.25024C137.688 9.19199 138.525 10.4205 138.674 10.3118C138.825 10.202 137.915 9.02549 138.024 8.87461C138.133 8.72524 139.534 9.22863 139.592 9.04917C139.648 8.876 138.221 8.46053 138.221 8.26866C138.221 8.07678 139.648 7.66125 139.592 7.48809C139.534 7.30862 138.133 7.81207 138.024 7.6627C137.915 7.51188 138.825 6.33527 138.674 6.2255C138.525 6.11682 137.688 7.34538 137.508 7.28707C137.335 7.23082 137.381 5.74288 137.189 5.74288C136.997 5.74288 137.043 7.23088 136.87 7.28707C136.691 7.34532 135.853 6.11682 135.704 6.2255C135.553 6.33527 136.464 7.51182 136.354 7.6627C136.246 7.81207 134.845 7.30868 134.787 7.48815C134.73 7.66131 136.158 8.07678 136.158 8.26866Z" fill="#FFF2D4"/>
</g>
<path d="M192.242 17C192.242 25.7242 185.169 32.7967 176.445 32.7967C167.722 32.7967 160.649 25.724 160.649 17C160.649 8.27602 167.722 1.20326 176.445 1.20326C185.169 1.20326 192.242 8.27602 192.242 17Z" fill="#ADEBF6"/>
<path fill-rule="evenodd" clip-rule="evenodd" d="M168.844 35.1143L168.851 31.7649L185.976 31.8026L185.968 35.152L168.844 35.1143Z" fill="#FFDB76"/>
<path fill-rule="evenodd" clip-rule="evenodd" d="M185.969 35.1527L185.971 33.7882L168.847 33.689L168.844 35.1146L185.969 35.1527Z" fill="#FFDB76"/>
<path fill-rule="evenodd" clip-rule="evenodd" d="M183.594 35.1478L183.602 31.7984L184.102 31.7997L184.094 35.149L183.594 35.1478ZM181.862 35.1407L181.87 31.7913L182.37 31.7923L182.363 35.1417L181.862 35.1407ZM179.768 33.4734L180.201 33.0422L180.633 33.4753L180.199 33.9068L179.768 33.4734ZM178.734 33.4558L179.167 33.0243L179.599 33.4575L179.165 33.8889L178.734 33.4558Z" fill="#333333"/>
<path fill-rule="evenodd" clip-rule="evenodd" d="M166.812 27.5253L166.816 24.1759L183.94 24.1964L183.937 27.5458L166.812 27.5253Z" fill="#FF916E"/>
<path fill-rule="evenodd" clip-rule="evenodd" d="M183.937 27.5463L183.938 26.1818L166.813 26.1007L166.812 27.5258L183.937 27.5463Z" fill="#FF916E"/>
<path fill-rule="evenodd" clip-rule="evenodd" d="M181.561 27.5422L181.564 24.1933L182.064 24.1935L182.061 27.5427L181.561 27.5422ZM179.83 27.5388L179.834 24.1894L180.334 24.1901L180.33 27.5395L179.83 27.5388Z" fill="white"/>
<path fill-rule="evenodd" clip-rule="evenodd" d="M177.735 25.8719L178.167 25.4402L178.599 25.8731L178.166 26.3048L177.735 25.8719ZM176.701 25.8557L177.133 25.4241L177.565 25.857L177.132 26.2887L176.701 25.8557Z" fill="#333333"/>
<path fill-rule="evenodd" clip-rule="evenodd" d="M180.976 27.5219V31.7896H168.69C167.554 31.739 166.649 30.8018 166.649 29.6547C166.649 29.1128 166.854 28.5911 167.224 28.1951C167.594 27.7992 168.1 27.5585 168.641 27.5219H180.976Z" fill="#333333"/>
<path fill-rule="evenodd" clip-rule="evenodd" d="M180.976 27.8309V31.4809H168.973C167.918 31.4809 167.063 30.663 167.063 29.6547C167.063 28.6793 167.862 27.8834 168.867 27.8309H180.976Z" fill="white"/>
<path fill-rule="evenodd" clip-rule="evenodd" d="M177.274 31.4809L177.283 29.0335L176.967 29.0355V31.4809H177.274Z" fill="#B2B2B2"/>
<path fill-rule="evenodd" clip-rule="evenodd" d="M175.382 29.044L176.975 29.0335L177.003 33.3067L176.2 32.6305L175.408 33.3162L175.382 29.044Z" fill="#FF916E"/>
<path opacity="0.5" fill-rule="evenodd" clip-rule="evenodd" d="M175.399 31.5342L176.993 31.5242L176.998 32.2734L175.404 32.2834L175.399 31.5342Z" fill="#FF916E"/>
<path d="M182.047 17.8741L181.303 11.5371C181.303 9.07705 179.069 7.08263 176.312 7.08263C173.556 7.08263 171.322 9.07681 171.322 11.5371L170.578 17.8741C170.493 18.2305 170.451 18.5954 170.451 18.9617C170.451 21.8515 173.075 24.1942 176.313 24.1942C179.55 24.1942 182.175 21.8515 182.175 18.9617C182.175 18.5889 182.131 18.2249 182.047 17.8741Z" fill="#E9AA89"/>
<path d="M182.047 17.8741L181.303 11.5371C181.303 9.07705 179.069 7.08263 176.312 7.08263C173.556 7.08263 171.322 9.07681 171.322 11.5371L170.578 17.8741C170.493 18.2305 170.451 18.5954 170.451 18.9617C170.451 21.8515 173.075 24.1942 176.313 24.1942C179.55 24.1942 182.175 21.8515 182.175 18.9617C182.175 18.5889 182.131 18.2249 182.047 17.8741Z" fill="#B3B3B3"/>
<path d="M178.412 7.49476C177.77 7.24078 177.063 7.08263 176.312 7.08263C175.526 7.08263 174.783 7.24445 174.121 7.53387C173.486 7.81132 176.312 8.85436 176.312 8.85436C176.312 8.85436 179.157 7.78883 178.412 7.49476Z" fill="#333333"/>
<path d="M176.312 12.818C175.256 13.3013 175.203 13.8249 175.203 13.8249L176.312 15.1943L177.421 13.8249C177.421 13.8249 177.369 13.3013 176.312 12.818Z" fill="#FF916E"/>
<path d="M176.312 12.818C175.256 13.3013 175.203 13.8249 175.203 13.8249L176.358 14.7359L177.422 13.8249C177.422 13.8249 177.369 13.3013 176.312 12.818Z" fill="#FF916E"/>
<path d="M176.312 12.818C175.256 13.3013 175.203 13.8249 175.203 13.8249L176.312 14.4741L177.421 13.8249C177.421 13.8249 177.369 13.3013 176.312 12.818Z" fill="#FFDB76"/>
<path d="M181.16 11.5061C181.16 12.8019 180.11 13.8528 178.814 13.8528C177.518 13.8528 176.467 12.8019 176.467 11.5061C176.467 10.2103 177.518 9.15944 178.814 9.15944C180.11 9.15944 181.16 10.2103 181.16 11.5061ZM176.158 11.5061C176.158 12.8019 175.107 13.8528 173.811 13.8528C172.515 13.8528 171.465 12.8019 171.465 11.5061C171.465 10.2103 172.515 9.15944 173.811 9.15944C175.107 9.15944 176.158 10.2103 176.158 11.5061Z" fill="white"/>
<path d="M173.811 12.5755C174.402 12.5755 174.881 12.0967 174.881 11.5061C174.881 10.9155 174.402 10.4366 173.811 10.4366C173.221 10.4366 172.742 10.9155 172.742 11.5061C172.742 12.0967 173.221 12.5755 173.811 12.5755Z" fill="#FFDB76"/>
<path d="M174.51 11.5061C174.51 11.5979 174.492 11.6888 174.457 11.7736C174.422 11.8584 174.37 11.9355 174.305 12.0004C174.24 12.0653 174.163 12.1168 174.078 12.1519C173.994 12.187 173.903 12.2051 173.811 12.2051C173.719 12.2051 173.628 12.187 173.543 12.1518C173.458 12.1167 173.381 12.0652 173.316 12.0002C173.252 11.9353 173.2 11.8582 173.165 11.7734C173.13 11.6886 173.112 11.5977 173.112 11.5059C173.112 11.3204 173.186 11.1426 173.317 11.0115C173.448 10.8805 173.626 10.8068 173.811 10.8069C173.996 10.8069 174.174 10.8806 174.305 11.0117C174.436 11.1428 174.51 11.3207 174.51 11.5061Z" fill="#333333"/>
<path d="M173.508 11.0182C173.508 11.0672 173.489 11.1142 173.454 11.1489C173.419 11.1835 173.372 11.203 173.323 11.203C173.274 11.203 173.227 11.1835 173.193 11.1489C173.158 11.1142 173.139 11.0672 173.139 11.0182C173.139 10.9692 173.158 10.9222 173.193 10.8875C173.227 10.8529 173.274 10.8334 173.323 10.8334C173.372 10.8334 173.419 10.8529 173.454 10.8875C173.489 10.9222 173.508 10.9692 173.508 11.0182Z" fill="white"/>
<path d="M179.883 11.5061C179.883 11.7898 179.771 12.0619 179.57 12.2625C179.369 12.4631 179.097 12.5758 178.814 12.5758C178.53 12.5758 178.258 12.4631 178.057 12.2625C177.857 12.0619 177.744 11.7898 177.744 11.5061C177.744 11.2224 177.857 10.9503 178.057 10.7497C178.258 10.5491 178.53 10.4364 178.814 10.4364C179.097 10.4364 179.369 10.5491 179.57 10.7497C179.771 10.9503 179.883 11.2224 179.883 11.5061Z" fill="#FFDB76"/>
<path d="M179.512 11.5061C179.514 11.599 179.497 11.6913 179.463 11.7776C179.429 11.8639 179.377 11.9424 179.312 12.0087C179.247 12.075 179.17 12.1277 179.084 12.1636C178.998 12.1995 178.906 12.2181 178.814 12.2181C178.721 12.2181 178.629 12.1995 178.543 12.1636C178.458 12.1277 178.38 12.075 178.315 12.0087C178.25 11.9424 178.199 11.8639 178.164 11.7776C178.13 11.6913 178.113 11.599 178.115 11.5061C178.118 11.3231 178.193 11.1487 178.324 11.0204C178.455 10.8922 178.631 10.8203 178.814 10.8203C178.997 10.8203 179.172 10.8922 179.303 11.0204C179.434 11.1487 179.509 11.3231 179.512 11.5061Z" fill="#333333"/>
<path d="M178.511 11.0182C178.511 11.0672 178.491 11.1141 178.457 11.1488C178.422 11.1834 178.375 11.2029 178.326 11.203C178.277 11.2031 178.23 11.1837 178.196 11.1491C178.161 11.1146 178.142 11.0676 178.141 11.0187C178.141 10.9945 178.146 10.9705 178.155 10.9481C178.165 10.9257 178.178 10.9053 178.195 10.8881C178.212 10.871 178.233 10.8573 178.255 10.848C178.278 10.8387 178.302 10.8339 178.326 10.8339C178.35 10.8339 178.374 10.8386 178.396 10.8479C178.419 10.8571 178.439 10.8707 178.456 10.8878C178.474 10.9049 178.487 10.9252 178.496 10.9476C178.506 10.97 178.511 10.994 178.511 11.0182Z" fill="white"/>
<path d="M181.809 20.7845C181.829 20.7344 181.848 20.6833 181.868 20.6327C181.878 20.607 181.888 20.5816 181.897 20.5559C181.913 20.5095 181.928 20.4628 181.943 20.4161C181.954 20.3846 181.964 20.353 181.974 20.3205C181.987 20.2765 181.999 20.2328 182.011 20.1883C182.021 20.1521 182.03 20.1162 182.039 20.0795C182.049 20.0379 182.059 19.9954 182.068 19.9529C182.077 19.9128 182.084 19.8722 182.092 19.8316C182.1 19.792 182.107 19.7524 182.114 19.7128C182.121 19.6669 182.127 19.6217 182.133 19.5757C182.138 19.5395 182.143 19.5031 182.147 19.4669C182.153 19.4134 182.157 19.3596 182.161 19.3056C182.163 19.276 182.166 19.2464 182.167 19.2164C182.172 19.1323 182.175 19.0475 182.175 18.9619C182.175 18.8908 182.172 18.8201 182.168 18.7495C182.155 18.4546 182.115 18.1616 182.047 17.8744L181.667 14.6416C180.52 14.1011 179.119 15.5763 180.128 17.6316C180.586 18.5675 181.073 19.4895 181.586 20.3965C180.636 22.0365 178.632 23.1676 176.312 23.1676C173.993 23.1676 171.989 22.0365 171.039 20.3965C171.552 19.4895 172.038 18.5674 172.497 17.6316C173.505 15.5763 172.105 14.1011 170.957 14.6416L170.578 17.8741C170.511 18.1615 170.47 18.4544 170.457 18.7492C170.448 18.9048 170.448 19.0606 170.458 19.2161C170.459 19.2462 170.462 19.2758 170.464 19.3053C170.468 19.3594 170.472 19.4131 170.478 19.4667C170.482 19.5029 170.487 19.5393 170.492 19.5755C170.498 19.6214 170.504 19.6666 170.511 19.7126C170.518 19.7522 170.525 19.7918 170.533 19.8314C170.54 19.872 170.548 19.9125 170.557 19.9526C170.566 19.9952 170.576 20.0377 170.586 20.0793C170.606 20.16 170.628 20.2404 170.651 20.3203C170.661 20.3528 170.671 20.3843 170.682 20.4159C170.697 20.4625 170.712 20.5095 170.728 20.5557C170.737 20.5813 170.748 20.6068 170.758 20.6324C170.777 20.683 170.796 20.7341 170.816 20.7842C171.646 22.7752 173.794 24.194 176.312 24.194C178.832 24.1942 180.979 22.7752 181.809 20.7845Z" fill="#B3B3B3"/>
<path d="M173.62 24.4842H173.501C173.501 24.7763 173.62 24.9897 173.62 24.9897C173.62 24.9897 173.739 24.7763 173.739 24.4842H173.62ZM174.188 24.9185H174.068C174.068 25.2106 174.188 25.4236 174.188 25.4236C174.188 25.4236 174.307 25.2106 174.307 24.9185H174.188ZM174.755 24.4842H174.636C174.636 24.7763 174.755 24.9897 174.755 24.9897C174.755 24.9897 174.875 24.7763 174.875 24.4842H174.755Z" fill="white"/>
<path d="M177.87 24.4842H177.75C177.75 24.7763 177.87 24.9897 177.87 24.9897C177.87 24.9897 177.989 24.7763 177.989 24.4842H177.87ZM178.437 24.9185H178.318C178.318 25.2106 178.437 25.4236 178.437 25.4236C178.437 25.4236 178.557 25.2106 178.557 24.9185H178.437ZM179.005 24.4842H178.886C178.886 24.7763 179.005 24.9897 179.005 24.9897C179.005 24.9897 179.125 24.7763 179.125 24.4842H179.005Z" fill="white"/>
<path d="M173.62 24.7367C173.583 24.7367 173.546 24.7294 173.511 24.7152C173.477 24.7009 173.446 24.68 173.419 24.6537C173.393 24.6274 173.372 24.5961 173.358 24.5617C173.344 24.5273 173.336 24.4904 173.336 24.4531V23.4514C173.336 23.3761 173.366 23.304 173.419 23.2508C173.472 23.1976 173.545 23.1677 173.62 23.1677C173.695 23.1677 173.767 23.1976 173.82 23.2508C173.874 23.304 173.904 23.3761 173.904 23.4514V24.4531C173.904 24.6096 173.777 24.7367 173.62 24.7367ZM174.755 24.7367C174.718 24.7367 174.681 24.7294 174.647 24.7152C174.612 24.7009 174.581 24.68 174.555 24.6537C174.528 24.6274 174.507 24.5961 174.493 24.5617C174.479 24.5273 174.471 24.4904 174.471 24.4531V23.4514C174.471 23.3761 174.501 23.3039 174.555 23.2507C174.608 23.1975 174.68 23.1676 174.755 23.1676C174.83 23.1676 174.903 23.1975 174.956 23.2507C175.009 23.3039 175.039 23.3761 175.039 23.4514V24.4531C175.039 24.4904 175.032 24.5273 175.017 24.5617C175.003 24.5961 174.982 24.6274 174.956 24.6537C174.929 24.68 174.898 24.7009 174.864 24.7152C174.829 24.7294 174.792 24.7367 174.755 24.7367Z" fill="#FFDB76"/>
<path d="M174.188 25.171C174.031 25.171 173.904 25.0439 173.904 24.887V23.184C173.904 23.1087 173.933 23.0364 173.987 22.9832C174.04 22.9299 174.112 22.9 174.187 22.9C174.263 22.9 174.335 22.9299 174.388 22.9832C174.441 23.0364 174.471 23.1087 174.471 23.184V24.887C174.471 24.9243 174.464 24.9612 174.45 24.9957C174.436 25.0302 174.415 25.0615 174.388 25.0879C174.362 25.1143 174.331 25.1352 174.296 25.1495C174.262 25.1637 174.225 25.1711 174.188 25.171Z" fill="#FFDB76"/>
<path d="M177.87 24.7366C177.713 24.7366 177.586 24.6095 177.586 24.4531V23.4513C177.586 23.376 177.616 23.3038 177.669 23.2506C177.722 23.1973 177.794 23.1674 177.87 23.1674C177.945 23.1674 178.017 23.1973 178.071 23.2506C178.124 23.3038 178.154 23.376 178.154 23.4513V24.4531C178.154 24.6095 178.027 24.7366 177.87 24.7366ZM179.005 24.7366C178.93 24.7366 178.858 24.7068 178.805 24.6536C178.751 24.6004 178.722 24.5283 178.722 24.4531V23.4513C178.722 23.3761 178.751 23.304 178.805 23.2508C178.858 23.1976 178.93 23.1677 179.005 23.1677C179.08 23.1677 179.153 23.1976 179.206 23.2508C179.259 23.304 179.289 23.3761 179.289 23.4513V24.4531C179.289 24.6095 179.162 24.7366 179.005 24.7366Z" fill="#FFDB76"/>
<path d="M178.437 25.171C178.4 25.171 178.363 25.1637 178.329 25.1494C178.294 25.1351 178.263 25.1142 178.237 25.0878C178.21 25.0614 178.189 25.0301 178.175 24.9956C178.161 24.9612 178.154 24.9242 178.154 24.887V23.1839C178.157 23.1111 178.189 23.0425 178.242 22.9923C178.295 22.9421 178.365 22.9141 178.438 22.9141C178.511 22.9141 178.581 22.9421 178.633 22.9923C178.686 23.0425 178.718 23.1111 178.722 23.1839V24.887C178.722 25.0441 178.594 25.171 178.437 25.171Z" fill="#FFDB76"/>
<path d="M182.933 21.9231C182.933 21.9231 184.042 17.4869 182.933 15.1102C181.824 12.7334 179.025 14.5291 180.398 17.3283C181.77 20.1274 182.933 21.9231 182.933 21.9231ZM169.692 21.9231C169.692 21.9231 168.583 17.4869 169.692 15.1102C170.802 12.7334 173.6 14.5291 172.227 17.3283C170.855 20.1274 169.692 21.9231 169.692 21.9231Z" fill="#333333"/>
<path d="M176.358 10.4366C176.358 10.4366 177.079 8.69058 179.848 8.69058C182.617 8.69058 182.379 7.03202 182.591 6.84722C182.591 6.84722 184.05 9.22053 179.507 9.22053C178.687 9.22053 177.52 9.41022 176.358 10.4366Z" fill="#333333"/>
<path d="M176.377 10.4367C176.377 10.4367 175.656 8.6906 172.887 8.6906C170.118 8.6906 170.356 7.03204 170.145 6.84724C170.145 6.84724 168.686 9.22055 173.228 9.22055C174.048 9.22055 175.215 9.41024 176.377 10.4367Z" fill="#333333"/>
<defs>
<clipPath id="clip0_16_739">
<rect width="34" height="34" fill="white"/>
</clipPath>
<clipPath id="clip1_16_739">
<rect width="32" height="32" fill="white" transform="translate(81.6489 1)"/>
</clipPath>
<clipPath id="clip2_16_739">
<rect width="31" height="31" fill="white" transform="translate(121.649 1.5)"/>
</clipPath>
</defs>
</svg>
